<svg width="18" height="18" viewBox="0 0 18 18" fill="none" xmlns="http://www.w3.org/2000/svg">
<g clip-path="url(#clip0_2856_5731)">
<path fill-rule="evenodd" clip-rule="evenodd" d="M9 0C4.02944 0 0 4.02944 0 9C0 13.9706 4.02944 18 9 18C13.9706 18 18 13.9706 18 9C18 4.02944 13.9706 0 9 0ZM8.99288 4.18605C7.48934 4.18605 6.269 5.40341 6.269 6.90698C6.269 8.41052 7.48934 9.62791 8.99288 9.62791C10.4964 9.62791 11.7168 8.41052 11.7168 6.90698C11.7168 5.40341 10.4964 4.18605 8.99288 4.18605ZM9 10.8837C7.20348 10.8837 5.57141 11.5883 4.37908 12.7331C4.25576 12.8515 4.18605 13.0151 4.18605 13.186C4.18605 13.357 4.25576 13.5206 4.37908 13.639C5.57141 14.7838 7.20348 15.4884 9 15.4884C10.7965 15.4884 12.4286 14.7838 13.6209 13.639C13.7442 13.5206 13.814 13.357 13.814 13.186C13.814 13.0151 13.7442 12.8515 13.6209 12.7331C12.4286 11.5883 10.7965 10.8837 9 10.8837Z" fill="#3A3E50"/>
</g>
<defs>
<clipPath id="clip0_2856_5731">
<rect width="18" height="18" fill="white"/>
</clipPath>
</defs>
</svg>
