<svg width="36" height="36" viewBox="0 0 36 36" fill="none" xmlns="http://www.w3.org/2000/svg">
<path d="M8.50429 14.8715L13.0975 8.65699C16.0665 4.63991 17.5511 2.63137 18.9361 3.05582C20.3211 3.48027 20.3211 5.94374 20.3211 10.8707V11.3352C20.3211 13.1123 20.3211 14.0008 20.889 14.5581L20.919 14.587C21.4991 15.1325 22.4238 15.1325 24.2733 15.1325C27.6017 15.1325 29.2658 15.1325 29.8283 16.142C29.8376 16.1587 29.8466 16.1755 29.8554 16.1925C30.3863 17.2175 29.4228 18.5212 27.4957 21.1285L22.9025 27.343C19.9334 31.3601 18.4488 33.3686 17.0638 32.9442C15.6787 32.5197 15.6788 30.0562 15.6788 25.1292L15.6788 24.6649C15.6789 22.8878 15.6789 21.9993 15.1111 21.4419L15.081 21.4131C14.501 20.8675 13.5762 20.8675 11.7266 20.8675C8.39832 20.8675 6.73417 20.8675 6.17174 19.8581C6.16243 19.8414 6.15338 19.8245 6.14459 19.8076C5.61366 18.7825 6.5772 17.4789 8.50429 14.8715Z" stroke="#00F0E4" stroke-width="3"/>
</svg>
