<svg width="131" height="48" viewBox="0 0 131 48" fill="none" xmlns="http://www.w3.org/2000/svg">
<path opacity="0.9" d="M5.03741 15.464C5.78801 12.6631 8.66702 9.7841 11.4679 9.0335L28.9296 4.35394C31.7305 3.60334 33.3925 5.26539 32.6419 8.06624L27.9624 25.528C27.2118 28.3288 24.3327 31.2078 21.5319 31.9584L4.07015 36.638C1.2693 37.3886 -0.392754 35.7265 0.357844 32.9257L5.03741 15.464Z" fill="#895EFF"/>
<path d="M12.0355 22.464C12.7861 19.6631 15.6651 16.7841 18.4659 16.0335L35.9276 11.3539C38.7285 10.6033 40.3905 12.2654 39.6399 15.0662L34.9604 32.528C34.2098 35.3288 31.3308 38.2078 28.5299 38.9584L11.0682 43.638C8.26735 44.3886 6.60529 42.7265 7.35589 39.9257L12.0355 22.464Z" fill="#895EFF"/>
<path d="M54.563 13.7759V28.9229H63.365V32.9999H50V13.7759H54.563Z" fill="white"/>
<path d="M78.1135 32.9999H73.8745C73.6585 32.5859 73.5415 32.0639 73.5235 31.4339C72.5875 32.6939 71.1025 33.3239 69.0685 33.3239C67.5385 33.3239 66.3055 32.9459 65.3695 32.1899C64.4515 31.4339 63.9925 30.3899 63.9925 29.0579C63.9925 26.4659 65.8105 25.0169 69.4465 24.7109L71.6335 24.5219C72.8395 24.3959 73.4425 23.9369 73.4425 23.1449C73.4425 22.2089 72.7315 21.7409 71.3095 21.7409C70.4455 21.7409 69.8335 21.8759 69.4735 22.1459C69.1315 22.3979 68.9245 22.8749 68.8525 23.5769H64.6675C64.9195 20.3549 67.1425 18.7439 71.3365 18.7439C75.4765 18.7439 77.5465 20.1749 77.5465 23.0369V30.4349C77.5465 31.6049 77.7355 32.4599 78.1135 32.9999ZM70.3375 30.4889C71.2915 30.4889 72.0475 30.2459 72.6055 29.7599C73.1635 29.2559 73.4425 28.5089 73.4425 27.5189V26.4929C73.1905 26.7629 72.7225 26.9429 72.0385 27.0329L70.3105 27.2219C68.9605 27.3659 68.2855 27.9239 68.2855 28.8959C68.2855 29.3819 68.4655 29.7689 68.8255 30.0569C69.1855 30.3449 69.6895 30.4889 70.3375 30.4889Z" fill="white"/>
<path d="M87.11 21.1469L87.839 19.0679H92.186L86.894 32.0549L84.41 38.2919H80.36L82.709 32.5139L77.363 19.0679H81.899L82.547 20.8769C83.123 22.5869 83.861 24.9539 84.761 27.9779C85.751 25.1879 86.534 22.9109 87.11 21.1469Z" fill="white"/>
<path d="M106.046 26.4389V27.2759H95.7323C95.8763 28.2299 96.2273 28.9589 96.7853 29.4629C97.3433 29.9669 98.0543 30.2189 98.9183 30.2189C100.286 30.2189 101.222 29.6969 101.726 28.6529H105.722C105.344 30.0929 104.543 31.2359 103.319 32.0819C102.095 32.9099 100.628 33.3239 98.9183 33.3239C96.7583 33.3239 95.0123 32.6579 93.6803 31.3259C92.3483 29.9939 91.6823 28.2299 91.6823 26.0339C91.6823 23.8199 92.3393 22.0559 93.6533 20.7419C94.9493 19.4099 96.6863 18.7439 98.8643 18.7439C101.024 18.7439 102.77 19.4369 104.102 20.8229C105.398 22.2269 106.046 24.0989 106.046 26.4389ZM98.8103 21.8489C97.0823 21.8489 96.0653 22.7669 95.7593 24.6029H101.915C101.771 23.7389 101.429 23.0639 100.889 22.5779C100.349 22.0919 99.6563 21.8489 98.8103 21.8489Z" fill="white"/>
<path d="M115.55 18.8519C115.622 18.8519 115.928 18.8699 116.468 18.9059V22.7399H115.388C112.922 22.7399 111.689 23.9999 111.689 26.5199V32.9999H107.477V19.0679H111.581V21.6599C112.229 19.7879 113.552 18.8519 115.55 18.8519Z" fill="white"/>
<path d="M123.369 33.4049C121.173 33.4049 119.535 33.0269 118.455 32.2709C117.393 31.4969 116.799 30.2639 116.673 28.5719H120.777C120.849 29.3099 121.083 29.8319 121.479 30.1379C121.893 30.4439 122.55 30.5969 123.45 30.5969C125.016 30.5969 125.799 30.1469 125.799 29.2469C125.799 28.8149 125.628 28.4909 125.286 28.2749C124.944 28.0409 124.314 27.8519 123.396 27.7079L121.587 27.4109C118.455 26.9249 116.889 25.5029 116.889 23.1449C116.889 21.7409 117.429 20.6609 118.509 19.9049C119.589 19.1309 121.137 18.7439 123.153 18.7439C127.311 18.7439 129.471 20.3369 129.633 23.5229H125.718C125.7 22.2089 124.845 21.5519 123.153 21.5519C121.731 21.5519 121.02 21.9929 121.02 22.8749C121.02 23.2709 121.182 23.5769 121.506 23.7929C121.83 24.0089 122.343 24.1709 123.045 24.2789L125.124 24.5759C126.798 24.8279 128.031 25.3049 128.823 26.0069C129.615 26.7089 130.011 27.6719 130.011 28.8959C130.011 30.3359 129.426 31.4519 128.256 32.2439C127.104 33.0179 125.475 33.4049 123.369 33.4049Z" fill="white"/>
</svg>
