<svg width="112" height="48" viewBox="0 0 112 48" fill="none" xmlns="http://www.w3.org/2000/svg">
<path d="M25.4012 24C25.4012 27.3137 22.7149 30 19.4012 30C16.0875 30 13.4012 27.3137 13.4012 24C13.4012 20.6863 16.0875 18 19.4012 18C22.7149 18 25.4012 20.6863 25.4012 24Z" fill="#FD7168"/>
<path d="M25.4012 10C25.4012 13.3137 22.7149 16 19.4012 16C16.0875 16 13.4012 13.3137 13.4012 10C13.4012 6.68629 16.0875 4 19.4012 4C22.7149 4 25.4012 6.68629 25.4012 10Z" fill="#FD7168"/>
<path d="M37.5254 31C37.5254 34.3137 34.8391 37 31.5254 37C28.2117 37 25.5254 34.3137 25.5254 31C25.5254 27.6863 28.2117 25 31.5254 25C34.8391 25 37.5254 27.6863 37.5254 31Z" fill="#FD7168"/>
<path d="M37.5273 17.0002C37.5273 20.3139 34.8411 23.0002 31.5273 23.0002C28.2136 23.0002 25.5273 20.3139 25.5273 17.0002C25.5273 13.6865 28.2136 11.0002 31.5273 11.0002C34.8411 11.0002 37.5273 13.6865 37.5273 17.0002Z" fill="#FD7168"/>
<path d="M25.4012 38C25.4012 41.3137 22.7149 44 19.4012 44C16.0875 44 13.4012 41.3137 13.4012 38C13.4012 34.6863 16.0875 32 19.4012 32C22.7149 32 25.4012 34.6863 25.4012 38Z" fill="#FD7168"/>
<path d="M13.2773 17C13.2773 20.3137 10.5911 23 7.27734 23C3.96363 23 1.27734 20.3137 1.27734 17C1.27734 13.6863 3.96363 11 7.27734 11C10.5911 11 13.2773 13.6863 13.2773 17Z" fill="#FD7168"/>
<path d="M13.2754 30.9997C13.2754 34.3134 10.5891 36.9997 7.27539 36.9997C3.96168 36.9997 1.27539 34.3134 1.27539 30.9997C1.27539 27.686 3.96168 24.9997 7.27539 24.9997C10.5891 24.9997 13.2754 27.686 13.2754 30.9997Z" fill="#FD7168"/>
<path d="M48 33V13.3564H55.752C60.1685 13.3564 62.937 15.8481 62.937 19.8032C62.937 23.7583 60.1157 26.25 55.6992 26.25H52.0605V33H48ZM52.0605 22.8486H55.4883C57.6372 22.8486 58.9688 21.6753 58.9688 19.8032C58.9688 17.9312 57.6372 16.7578 55.4883 16.7578H52.0605V22.8486Z" fill="white"/>
<path d="M70.149 33.3164C65.9302 33.3164 63.0826 30.416 63.0826 26.0522C63.0826 21.6885 65.9302 18.7617 70.149 18.7617C74.3809 18.7617 77.2286 21.6885 77.2286 26.0522C77.2286 30.416 74.3809 33.3164 70.149 33.3164ZM70.149 30.1655C72.0474 30.1655 73.313 28.6362 73.313 26.0522C73.313 23.4551 72.0342 21.9126 70.149 21.9126C68.2769 21.9126 66.9981 23.4551 66.9981 26.0522C66.9981 28.6362 68.2637 30.1655 70.149 30.1655Z" fill="white"/>
<path d="M83.3463 33C80.169 33 78.8375 31.9189 78.8375 29.2295V13.3564H82.7266V28.8604C82.7266 29.7305 83.0299 30.0205 83.9 30.0205H84.4669V33H83.3463Z" fill="white"/>
<path d="M90.1891 33C87.0118 33 85.6803 31.9189 85.6803 29.2295V13.3564H89.5695V28.8604C89.5695 29.7305 89.8727 30.0205 90.7428 30.0205H91.3097V33H90.1891Z" fill="white"/>
<path d="M92.5231 33V19.0781H96.4123V33H92.5231ZM94.4611 17.3247C93.1823 17.3247 92.2463 16.4414 92.2463 15.2549C92.2463 14.0684 93.1823 13.1851 94.4611 13.1851C95.7399 13.1851 96.6759 14.0684 96.6759 15.2549C96.6759 16.4414 95.7399 17.3247 94.4611 17.3247Z" fill="white"/>
<path d="M102.517 25.2612V33H98.6276V19.0781H102.451V21.2666C103.387 19.6846 104.798 18.7881 106.801 18.7881C109.768 18.7881 111.679 20.7656 111.679 24.2856V33H107.803V24.9976C107.803 23.1255 106.867 22.1367 105.246 22.1367C103.637 22.1367 102.517 23.0991 102.517 25.2612Z" fill="white"/>
</svg>
