<svg width="106" height="48" viewBox="0 0 106 48" fill="none" xmlns="http://www.w3.org/2000/svg">
<path d="M22.1317 18.6667V8H0.79834V18.6667L22.1317 18.6667Z" fill="#FFCB3E"/>
<path d="M22.1312 29.3332C16.2402 29.3332 11.4646 34.1089 11.4646 39.9999L0.799643 40.0003L0.799643 39.725C0.946236 28.1153 10.3667 18.7403 21.994 18.667L32.7983 18.6675V40.0008H22.1317L22.1312 29.3332Z" fill="#FFCB3E"/>
<path d="M43 32.9999V13.3169H48.076V28.5179H56.959V32.9999H43Z" fill="white"/>
<path d="M65.3611 33.2699C63.7231 33.2699 62.3551 32.9639 61.2571 32.3519C60.1591 31.7219 59.3311 30.8399 58.7731 29.7059C58.2331 28.5719 57.9631 27.2579 57.9631 25.7639V25.4669C57.9631 23.8829 58.2601 22.5509 58.8541 21.4709C59.4481 20.3729 60.2671 19.5359 61.3111 18.9599C62.3731 18.3839 63.5881 18.0959 64.9561 18.0959C66.4861 18.0959 67.7821 18.3839 68.8441 18.9599C69.9241 19.5179 70.7431 20.3099 71.3011 21.3359C71.8591 22.3439 72.1381 23.5319 72.1381 24.8999V26.8979H62.7961V27.5729C62.7961 28.1849 63.0211 28.6889 63.4711 29.0849C63.9211 29.4809 64.4971 29.6789 65.1991 29.6789C65.8291 29.6789 66.3421 29.5529 66.7381 29.3009C67.1341 29.0309 67.3681 28.6799 67.4401 28.2479H71.9761C71.9221 29.2379 71.6071 30.1109 71.0311 30.8669C70.4551 31.6229 69.6811 32.2169 68.7091 32.6489C67.7371 33.0629 66.6211 33.2699 65.3611 33.2699ZM62.7961 23.8739V24.0089H67.4401V23.8739C67.4401 23.0999 67.2241 22.5329 66.7921 22.1729C66.3601 21.7949 65.8021 21.6059 65.1181 21.6059C64.4341 21.6059 63.8761 21.8039 63.4441 22.1999C63.0121 22.5779 62.7961 23.1359 62.7961 23.8739Z" fill="white"/>
<path d="M78.779 33.2699C77.465 33.2699 76.394 32.9729 75.566 32.3789C74.756 31.7849 74.162 30.9479 73.784 29.8679C73.406 28.7699 73.217 27.5009 73.217 26.0609V25.3589C73.217 22.7849 73.721 20.9399 74.729 19.8239C75.737 18.6899 77.087 18.1229 78.779 18.1229C79.697 18.1229 80.525 18.3209 81.263 18.7169C82.019 19.0949 82.577 19.6529 82.937 20.3909H83.153L83.396 18.3659H87.905V32.9999H83.153V31.0019H82.937C82.577 31.7219 82.019 32.2799 81.263 32.6759C80.525 33.0719 79.697 33.2699 78.779 33.2699ZM80.723 29.4089C81.461 29.4089 82.046 29.1929 82.478 28.7609C82.91 28.3289 83.126 27.6989 83.126 26.8709V24.4949C83.126 23.6849 82.91 23.0639 82.478 22.6319C82.046 22.1819 81.461 21.9569 80.723 21.9569C79.949 21.9569 79.346 22.1819 78.914 22.6319C78.5 23.0819 78.293 23.7029 78.293 24.4949V26.9249C78.293 27.6989 78.5 28.3109 78.914 28.7609C79.346 29.1929 79.949 29.4089 80.723 29.4089Z" fill="white"/>
<path d="M90.706 37.5089V18.3659H95.215L95.485 20.3909H95.701C96.0611 19.6529 96.6101 19.0949 97.348 18.7169C98.104 18.3209 98.941 18.1229 99.859 18.1229C101.191 18.1229 102.262 18.4199 103.072 19.0139C103.882 19.6079 104.476 20.4539 104.854 21.5519C105.232 22.6319 105.421 23.9009 105.421 25.3589V26.0609C105.421 28.6169 104.917 30.4619 103.909 31.5959C102.901 32.7119 101.551 33.2699 99.859 33.2699C98.941 33.2699 98.104 33.0719 97.348 32.6759C96.6101 32.2799 96.0611 31.7219 95.701 31.0019H95.485V37.5089H90.706ZM97.915 29.4089C98.689 29.4089 99.283 29.1929 99.697 28.7609C100.129 28.3109 100.345 27.6989 100.345 26.9249V24.4949C100.345 23.7029 100.129 23.0819 99.697 22.6319C99.283 22.1819 98.689 21.9569 97.915 21.9569C97.195 21.9569 96.6101 22.1819 96.16 22.6319C95.7281 23.0639 95.512 23.6849 95.512 24.4949V26.8709C95.512 27.6989 95.7281 28.3289 96.16 28.7609C96.6101 29.1929 97.195 29.4089 97.915 29.4089Z" fill="white"/>
</svg>
