<svg width="143" height="48" viewBox="0 0 143 48" fill="none" xmlns="http://www.w3.org/2000/svg">
<path d="M12.3487 5.5224C14.7752 4.51737 17.376 4 20.0024 4V14C18.6892 14 17.3888 14.2586 16.1756 14.7613C14.9623 15.2638 13.8599 16.0003 12.9314 16.9289C12.0028 17.8575 11.2662 18.9599 10.7637 20.1731C10.2611 21.3864 10.0024 22.6867 10.0024 24H0.00244141C0.00244141 21.3736 0.519813 18.7728 1.52484 16.3463C2.52998 13.9198 4.00313 11.7151 5.86027 9.85783C7.71753 8.00069 9.92221 6.52754 12.3487 5.5224Z" fill="#3773FE"/>
<path opacity="0.7" d="M0.00244141 24C0.00244141 26.6264 0.519813 29.2272 1.52484 31.6537C2.52998 34.0802 4.00313 36.2849 5.86027 38.1422C7.71753 39.9993 9.92221 41.4725 12.3487 42.4776C14.7752 43.4826 17.376 44 20.0024 44C22.6288 44 25.2296 43.4826 27.6562 42.4776C30.0827 41.4725 32.2874 39.9993 34.1446 38.1422C36.0018 36.2849 37.4749 34.0802 38.48 31.6537C39.4851 29.2272 40.0024 26.6264 40.0024 24H30.0024C30.0024 25.3133 29.7438 26.6136 29.2412 27.8269C28.7387 29.0401 28.0021 30.1425 27.0735 31.0711C26.145 31.9997 25.0426 32.7362 23.8293 33.2387C22.616 33.7414 21.3157 34 20.0024 34C18.6892 34 17.3888 33.7414 16.1756 33.2387C14.9623 32.7362 13.8599 31.9997 12.9314 31.0711C12.0028 30.1425 11.2662 29.0401 10.7637 27.8269C10.2611 26.6136 10.0024 25.3133 10.0024 24H0.00244141Z" fill="#3773FE"/>
<path d="M20.0028 17.6367C16.4883 17.6367 13.6392 20.4858 13.6392 24.0004H26.3664C26.3664 20.4858 23.5173 17.6367 20.0028 17.6367Z" fill="#84ADFF"/>
<path d="M20.0028 30.3633C16.4883 30.3633 13.6392 27.5142 13.6392 23.9996H26.3664C26.3664 27.5142 23.5173 30.3633 20.0028 30.3633Z" fill="#3773FE"/>
<path d="M55.4912 32.5143C54.0872 31.9203 53.0072 31.0293 52.2512 29.8683C51.4952 28.7343 51.1172 27.3573 51.1172 25.7643H55.8422C55.8692 26.9523 56.2742 27.8973 57.0842 28.5453C57.8672 29.2203 58.9742 29.5443 60.3782 29.5443C61.7282 29.5443 62.8082 29.3013 63.5642 28.7883C64.3202 28.2753 64.6982 27.5733 64.6982 26.6823C64.6982 26.0613 64.4822 25.5753 64.0502 25.2243C63.6182 24.9003 63.1052 24.6573 62.4572 24.4953C61.8092 24.3603 60.9182 24.1983 59.7302 24.0363C58.0562 23.8203 56.6792 23.5773 55.6262 23.2533C54.5462 22.9563 53.6282 22.3893 52.8722 21.5253C52.1162 20.6613 51.7382 19.4463 51.7382 17.8263C51.7382 16.5033 52.0622 15.3423 52.7642 14.3433C53.4392 13.3443 54.4112 12.5883 55.6802 12.0483C56.9222 11.5083 58.4072 11.2383 60.1352 11.2383C61.8092 11.2383 63.3212 11.5353 64.6442 12.1023C65.9402 12.6963 66.9662 13.5063 67.7222 14.5593C68.4512 15.6123 68.8292 16.8543 68.8292 18.2583H64.1852C64.0772 17.2863 63.6722 16.5033 62.9702 15.9633C62.2682 15.4233 61.2962 15.1263 60.0542 15.1263C58.7582 15.1263 57.7862 15.3693 57.1112 15.8283C56.4092 16.2873 56.0852 16.9353 56.0852 17.7723C56.0852 18.4203 56.3012 18.9333 56.7332 19.2573C57.1652 19.6083 57.7052 19.8513 58.3532 19.9863C59.0012 20.1483 59.8922 20.2833 61.0802 20.4183C62.7542 20.6343 64.1312 20.9043 65.1842 21.2013C66.2372 21.4983 67.1552 22.0653 67.9112 22.9293C68.6672 23.7933 69.0722 25.0083 69.0722 26.6283C69.0722 27.9783 68.7212 29.1393 68.0192 30.1653C67.3172 31.1913 66.2912 32.0013 64.9682 32.5683C63.6452 33.1623 62.0792 33.4323 60.2702 33.4323C58.4612 33.4323 56.8682 33.1353 55.4912 32.5143Z" fill="white"/>
<path d="M74.0225 32.4873C72.8885 31.8393 72.0245 30.9483 71.4035 29.8143C70.7825 28.6803 70.4855 27.4113 70.4855 25.9533C70.4855 24.5223 70.7825 23.2533 71.4035 22.1193C72.0245 20.9853 72.8885 20.1213 74.0225 19.4733C75.1295 18.8523 76.3985 18.5283 77.8295 18.5283C79.0715 18.5283 80.1785 18.8523 81.1775 19.4463C82.1765 20.0403 82.9595 20.9043 83.5535 22.0113C84.1205 23.1453 84.4175 24.4143 84.4175 25.8723V27.1683H74.5625C74.6435 28.1133 74.9675 28.8423 75.5075 29.3823C76.0475 29.9223 76.8305 30.1653 77.8565 30.1653C78.5315 30.1653 79.0985 30.0033 79.5305 29.6793C79.9625 29.3553 80.2325 28.9503 80.3405 28.4373H84.3365C84.1205 29.9493 83.3915 31.1643 82.2035 32.0823C81.0155 33.0003 79.5575 33.4323 77.8295 33.4323C76.3985 33.4323 75.1295 33.1353 74.0225 32.4873ZM80.3945 24.7113C80.3405 23.9013 80.0975 23.2533 79.6115 22.7403C79.1255 22.2543 78.4775 21.9843 77.6675 21.9843C76.7495 21.9843 76.0475 22.2273 75.5345 22.7133C75.0215 23.1993 74.6975 23.8743 74.5895 24.7113H80.3945Z" fill="white"/>
<path d="M88.1812 37.6443C86.9932 36.8343 86.3452 35.6193 86.2102 33.9993H90.2332C90.2872 34.6203 90.6112 35.0793 91.1512 35.3763C91.6912 35.6733 92.3932 35.8083 93.2842 35.8083C94.3642 35.8083 95.1742 35.5113 95.7142 34.8903C96.2542 34.2963 96.4972 33.3513 96.4972 32.0553V31.0563C95.4982 32.4063 93.9322 33.0813 91.7992 33.0813C90.5842 33.0813 89.5312 32.8113 88.6132 32.2173C87.6952 31.6503 86.9932 30.8403 86.5072 29.7603C85.9942 28.6803 85.7512 27.4383 85.7512 26.0073C85.7512 24.5493 85.9942 23.2533 86.5072 22.1193C86.9932 20.9853 87.7222 20.1213 88.6402 19.4733C89.5582 18.8523 90.6112 18.5283 91.7992 18.5283C93.9322 18.5283 95.4982 19.2843 96.4972 20.7423V19.2002H100.52V32.0553C100.52 36.5913 98.0362 38.8323 93.0952 38.8323C90.9892 38.8323 89.3422 38.4543 88.1812 37.6443ZM95.5792 28.7073C96.2002 27.9783 96.5242 27.0333 96.5242 25.8453C96.5242 24.6843 96.2002 23.7123 95.5792 22.9563C94.9312 22.2003 94.1212 21.8223 93.1492 21.8223C92.1502 21.8223 91.3402 22.2003 90.6922 22.9563C90.0442 23.7123 89.7472 24.6843 89.7472 25.8453C89.7472 27.0063 90.0442 27.9513 90.6922 28.6803C91.3132 29.4363 92.1232 29.7873 93.1492 29.7873C94.1212 29.7873 94.9312 29.4363 95.5792 28.7073Z" fill="white"/>
<path d="M102.708 19.2002H106.704V20.9853C107.19 20.2293 107.811 19.6083 108.621 19.1763C109.431 18.7443 110.376 18.5283 111.456 18.5283C113.67 18.5283 115.182 19.4193 115.965 21.2013C117.234 19.4193 119.043 18.5283 121.419 18.5283C124.902 18.5283 126.657 20.7153 126.657 25.0623V33.0003H122.58V25.2783C122.58 24.2523 122.337 23.4693 121.851 22.8753C121.365 22.2813 120.69 21.9843 119.826 21.9843C118.854 21.9843 118.071 22.3353 117.504 23.0373C116.937 23.7393 116.667 24.6573 116.667 25.8183V33.0003H112.617V25.2783C112.617 24.2523 112.374 23.4693 111.888 22.8753C111.402 22.2813 110.727 21.9843 109.863 21.9843C108.891 21.9843 108.108 22.3353 107.541 23.0373C106.974 23.7393 106.704 24.6573 106.704 25.8183V33.0003H102.708V19.2002Z" fill="white"/>
<path d="M131.672 32.4873C130.538 31.8393 129.674 30.9483 129.053 29.8143C128.432 28.6803 128.135 27.4113 128.135 25.9533C128.135 24.5223 128.432 23.2533 129.053 22.1193C129.674 20.9853 130.538 20.1213 131.672 19.4733C132.779 18.8523 134.048 18.5283 135.479 18.5283C136.721 18.5283 137.828 18.8523 138.827 19.4463C139.826 20.0403 140.609 20.9043 141.203 22.0113C141.77 23.1453 142.067 24.4143 142.067 25.8723V27.1683H132.212C132.293 28.1133 132.617 28.8423 133.157 29.3823C133.697 29.9223 134.48 30.1653 135.506 30.1653C136.181 30.1653 136.748 30.0033 137.18 29.6793C137.612 29.3553 137.882 28.9503 137.99 28.4373H141.986C141.77 29.9493 141.041 31.1643 139.853 32.0823C138.665 33.0003 137.207 33.4323 135.479 33.4323C134.048 33.4323 132.779 33.1353 131.672 32.4873ZM138.044 24.7113C137.99 23.9013 137.747 23.2533 137.261 22.7403C136.775 22.2543 136.127 21.9843 135.317 21.9843C134.399 21.9843 133.697 22.2273 133.184 22.7133C132.671 23.1993 132.347 23.8743 132.239 24.7113H138.044Z" fill="white"/>
</svg>
