<svg width="108" height="48" viewBox="0 0 108 48" fill="none" xmlns="http://www.w3.org/2000/svg">
<path d="M0.405273 7.5H29.2053C31.7255 7.5 32.9856 7.5 33.9482 7.99047C34.795 8.4219 35.4834 9.11031 35.9148 9.95704C36.4053 10.9196 36.4053 12.1798 36.4053 14.7V16.5H7.60528C5.08504 16.5 3.82492 16.5 2.86232 16.0095C2.01559 15.5781 1.32717 14.8897 0.895744 14.043C0.405273 13.0804 0.405273 11.8202 0.405273 9.3V7.5Z" fill="#62C6FF"/>
<path d="M0.405273 28.5H29.2053C31.7255 28.5 32.9856 28.5 33.9482 28.0095C34.795 27.5781 35.4834 26.8897 35.9148 26.043C36.4053 25.0804 36.4053 23.8202 36.4053 21.3V19.5H7.60528C5.08504 19.5 3.82492 19.5 2.86232 19.9905C2.01559 20.4219 1.32717 21.1103 0.895744 21.957C0.405273 22.9196 0.405273 24.1798 0.405273 26.7V28.5Z" fill="#62C6FF"/>
<path d="M14.4053 31.5H29.2053C31.7255 31.5 32.9856 31.5 33.9482 31.9905C34.795 32.4219 35.4834 33.1103 35.9148 33.957C36.4053 34.9196 36.4053 36.1798 36.4053 38.7V40.5H21.6053C19.085 40.5 17.8249 40.5 16.8623 40.0095C16.0156 39.5781 15.3272 38.8897 14.8957 38.043C14.4053 37.0804 14.4053 35.8202 14.4053 33.3V31.5Z" fill="#62C6FF"/>
<path d="M46.2051 32.9994V13.3164H56.0331C57.3111 13.3164 58.4631 13.4964 59.4891 13.8564C60.5151 14.1984 61.3341 14.7834 61.9461 15.6114C62.5581 16.4214 62.8641 17.5464 62.8641 18.9864C62.8641 20.2824 62.5311 21.3444 61.8651 22.1724C61.2171 22.9824 60.3351 23.4864 59.2191 23.6844V23.9004C61.4691 24.0984 62.5941 25.3854 62.5941 27.7614V32.9994H58.1121V28.4094C58.1121 27.4554 57.8871 26.7984 57.4371 26.4384C57.0051 26.0604 56.3841 25.8714 55.5741 25.8714H50.6331V32.9994H46.2051ZM55.0611 17.0424H50.6331V22.3884H55.1421C56.1501 22.3884 56.8971 22.1994 57.3831 21.8214C57.8691 21.4254 58.1121 20.8854 58.1121 20.2014V19.3374C58.1121 18.5094 57.8421 17.9244 57.3021 17.5824C56.7621 17.2224 56.0151 17.0424 55.0611 17.0424Z" fill="white"/>
<path d="M68.8901 33.2694C67.5581 33.2694 66.4781 32.9184 65.6501 32.2164C64.8221 31.4964 64.4081 30.5424 64.4081 29.3544V29.3004C64.4081 27.9144 64.8491 26.8434 65.7311 26.0874C66.6131 25.3314 67.8011 24.8634 69.2951 24.6834L73.3451 24.1434V23.5764C73.3451 22.2084 72.5171 21.5244 70.8611 21.5244C70.0691 21.5244 69.4391 21.6774 68.9711 21.9834C68.5211 22.2894 68.2961 22.7304 68.2961 23.3064H64.5431C64.5431 21.7044 65.1281 20.4624 66.2981 19.5804C67.4681 18.6804 69.1151 18.2304 71.2391 18.2304C73.1831 18.2304 74.7041 18.6444 75.8021 19.4724C76.9181 20.3004 77.4761 21.6144 77.4761 23.4144V30.0834H79.3661V32.9994H74.3981L74.0741 30.7584H73.7771C73.4171 31.5504 72.8141 32.1714 71.9681 32.6214C71.1401 33.0534 70.1141 33.2694 68.8901 33.2694ZM70.6721 30.2994C71.3921 30.2994 71.9951 30.1284 72.4811 29.7864C72.9851 29.4264 73.2731 28.9674 73.3451 28.4094V26.4654L70.6181 26.8704C70.0061 26.9424 69.5111 27.1044 69.1331 27.3564C68.7551 27.5904 68.5661 27.9504 68.5661 28.4364V28.7874C68.5661 29.2374 68.7461 29.6064 69.1061 29.8944C69.4841 30.1644 70.0061 30.2994 70.6721 30.2994Z" fill="white"/>
<path d="M81.2399 32.9994V18.5004H85.3979V32.9994H81.2399ZM81.2399 16.6644V13.3164H85.3979V16.6644H81.2399Z" fill="white"/>
<path d="M88.6364 32.9994V13.3164H92.7944V32.9994H88.6364Z" fill="white"/>
<path d="M101.352 33.2694C99.2819 33.2694 97.6979 32.8194 96.5999 31.9194C95.5199 31.0194 94.9889 29.8494 95.0069 28.4094H98.9759C99.0119 29.1294 99.2549 29.6424 99.7049 29.9484C100.173 30.2544 100.767 30.4074 101.487 30.4074C102.207 30.4074 102.72 30.2724 103.026 30.0024C103.35 29.7144 103.512 29.3724 103.512 28.9764C103.512 28.3464 103.287 27.9324 102.837 27.7344C102.387 27.5184 101.685 27.3384 100.731 27.1944C99.8669 27.0684 99.0209 26.8704 98.1929 26.6004C97.3649 26.3304 96.6809 25.9074 96.1409 25.3314C95.6189 24.7374 95.3579 23.9274 95.3579 22.9014C95.3579 21.8934 95.6099 21.0474 96.1139 20.3634C96.6359 19.6614 97.3469 19.1304 98.2469 18.7704C99.1469 18.4104 100.182 18.2304 101.352 18.2304C103.134 18.2304 104.574 18.6264 105.672 19.4184C106.788 20.2104 107.364 21.3264 107.4 22.7664L103.485 22.7394C103.485 22.1814 103.287 21.7584 102.891 21.4704C102.513 21.1644 102 21.0114 101.352 21.0114C100.722 21.0114 100.245 21.1374 99.9209 21.3894C99.5969 21.6414 99.4349 21.9744 99.4349 22.3884C99.4349 22.9644 99.6959 23.3424 100.218 23.5224C100.758 23.7024 101.433 23.8554 102.243 23.9814C102.927 24.0714 103.593 24.1974 104.241 24.3594C104.889 24.5034 105.474 24.7374 105.996 25.0614C106.536 25.3854 106.959 25.8354 107.265 26.4114C107.571 26.9694 107.724 27.7074 107.724 28.6254C107.724 30.0474 107.166 31.1814 106.05 32.0274C104.952 32.8554 103.386 33.2694 101.352 33.2694Z" fill="white"/>
</svg>
