<svg width="129" height="22" viewBox="0 0 129 22" fill="none" xmlns="http://www.w3.org/2000/svg">
<path d="M10.0029 2C8.46561 1.99974 6.95384 2.39316 5.61172 3.14274C4.2696 3.89232 3.14185 4.97309 2.33596 6.28203C1.53007 7.59098 1.0729 9.08448 1.00802 10.6202C0.943143 12.1559 1.27272 13.6826 1.96534 15.0548L1.22307 18.2692C1.1759 18.4771 1.18218 18.6935 1.24133 18.8983C1.30047 19.1031 1.41056 19.2896 1.56131 19.4403C1.71205 19.591 1.89854 19.7011 2.10336 19.7602C2.30817 19.8193 2.52464 19.8256 2.73254 19.7785L5.94605 19.0363C7.15955 19.6481 8.49584 19.9771 9.85468 19.9988C11.2135 20.0206 12.5597 19.7344 13.7921 19.1617C15.0245 18.5891 16.1113 17.7448 16.9708 16.6923C17.8304 15.6399 18.4404 14.4064 18.7552 13.0846C19.07 11.7627 19.0813 10.3868 18.7884 9.0599C18.4954 7.73304 17.9058 6.48973 17.0637 5.42323C16.2216 4.35672 15.1489 3.49471 13.926 2.90184C12.7032 2.30898 11.3619 2.00066 10.0029 2ZM10.0029 13.7692H6.54084C6.3572 13.7692 6.18108 13.6963 6.05122 13.5665C5.92137 13.4366 5.84842 13.2605 5.84842 13.0769C5.84842 12.8933 5.92137 12.7172 6.05122 12.5874C6.18108 12.4576 6.3572 12.3846 6.54084 12.3846H10.0029C10.1866 12.3846 10.3627 12.4576 10.4925 12.5874C10.6224 12.7172 10.6953 12.8933 10.6953 13.0769C10.6953 13.2605 10.6224 13.4366 10.4925 13.5665C10.3627 13.6963 10.1866 13.7692 10.0029 13.7692ZM13.465 9.61539H6.54084C6.3572 9.61539 6.18108 9.54245 6.05122 9.41261C5.92137 9.28278 5.84842 9.10669 5.84842 8.92308C5.84842 8.73947 5.92137 8.56337 6.05122 8.43354C6.18108 8.30371 6.3572 8.23077 6.54084 8.23077H13.465C13.6487 8.23077 13.8248 8.30371 13.9546 8.43354C14.0845 8.56337 14.1574 8.73947 14.1574 8.92308C14.1574 9.10669 14.0845 9.28278 13.9546 9.41261C13.8248 9.54245 13.6487 9.61539 13.465 9.61539Z" fill="white"/>
<path d="M32.976 16.16C31.7813 16.16 30.8267 15.696 30.112 14.768C29.3973 13.84 29.04 12.4907 29.04 10.72C29.04 8.94933 29.3973 7.6 30.112 6.672C30.8267 5.744 31.7813 5.28 32.976 5.28C34.1813 5.28 35.136 5.744 35.84 6.672C36.5547 7.6 36.912 8.94933 36.912 10.72C36.912 12.4907 36.5547 13.84 35.84 14.768C35.136 15.696 34.1813 16.16 32.976 16.16ZM32.976 15.008C33.5413 15.008 34.016 14.848 34.4 14.528C34.7947 14.1973 35.088 13.712 35.28 13.072C35.4827 12.432 35.584 11.648 35.584 10.72C35.584 9.792 35.4827 9.008 35.28 8.368C35.088 7.728 34.7947 7.248 34.4 6.928C34.016 6.59733 33.5413 6.432 32.976 6.432C32.4107 6.432 31.9307 6.59733 31.536 6.928C31.152 7.248 30.8587 7.728 30.656 8.368C30.464 9.008 30.368 9.792 30.368 10.72C30.368 11.648 30.464 12.432 30.656 13.072C30.8587 13.712 31.152 14.1973 31.536 14.528C31.9307 14.848 32.4107 15.008 32.976 15.008ZM53.6463 13.296C53.4223 13.8933 53.1023 14.4107 52.6863 14.848C52.2703 15.2747 51.7796 15.6 51.2143 15.824C50.6596 16.048 50.0516 16.16 49.3903 16.16C48.3876 16.16 47.5183 15.9413 46.7823 15.504C46.0569 15.056 45.4916 14.4267 45.0863 13.616C44.6916 12.8053 44.4943 11.84 44.4943 10.72C44.4943 9.6 44.6916 8.63467 45.0863 7.824C45.4916 7.01333 46.0569 6.38933 46.7823 5.952C47.5183 5.504 48.3769 5.28 49.3583 5.28C50.0409 5.28 50.6489 5.376 51.1823 5.568C51.7156 5.74933 52.1689 6.02667 52.5423 6.4C52.9263 6.76267 53.2303 7.21067 53.4543 7.744L52.1903 8.336C51.9556 7.728 51.6143 7.26933 51.1663 6.96C50.7289 6.64 50.1583 6.48 49.4543 6.48C48.7396 6.48 48.1103 6.65067 47.5663 6.992C47.0223 7.32267 46.5956 7.80267 46.2863 8.432C45.9876 9.06133 45.8383 9.824 45.8383 10.72C45.8383 11.6053 45.9823 12.368 46.2703 13.008C46.5583 13.6373 46.9689 14.1227 47.5023 14.464C48.0356 14.7947 48.6649 14.96 49.3903 14.96C50.0943 14.96 50.7076 14.784 51.2303 14.432C51.7529 14.0693 52.1316 13.5307 52.3663 12.816L53.6463 13.296ZM59.175 7.84C59.9323 7.84 60.599 8.00533 61.175 8.336C61.7617 8.66667 62.2203 9.14667 62.551 9.776C62.8817 10.3947 63.047 11.136 63.047 12C63.047 12.864 62.8817 13.6107 62.551 14.24C62.2203 14.8587 61.7617 15.3333 61.175 15.664C60.599 15.9947 59.9323 16.16 59.175 16.16C58.4283 16.16 57.7617 15.9947 57.175 15.664C56.5883 15.3333 56.1297 14.8587 55.799 14.24C55.4683 13.6107 55.303 12.864 55.303 12C55.303 11.136 55.4683 10.3947 55.799 9.776C56.1297 9.14667 56.5883 8.66667 57.175 8.336C57.7617 8.00533 58.4283 7.84 59.175 7.84ZM59.175 8.944C58.631 8.944 58.167 9.06667 57.783 9.312C57.399 9.55733 57.1003 9.90933 56.887 10.368C56.6843 10.816 56.583 11.36 56.583 12C56.583 12.6293 56.6843 13.1733 56.887 13.632C57.1003 14.0907 57.399 14.4427 57.783 14.688C58.167 14.9333 58.631 15.056 59.175 15.056C59.719 15.056 60.183 14.9333 60.567 14.688C60.951 14.4427 61.2443 14.0907 61.447 13.632C61.6603 13.1733 61.767 12.6293 61.767 12C61.767 11.36 61.6603 10.816 61.447 10.368C61.2443 9.90933 60.951 9.55733 60.567 9.312C60.183 9.06667 59.719 8.944 59.175 8.944ZM65.4568 16V8H66.5768L66.6568 9.248C66.9448 8.75733 67.3181 8.4 67.7768 8.176C68.2461 7.952 68.7261 7.84 69.2168 7.84C69.7821 7.84 70.3154 7.968 70.8168 8.224C71.3181 8.48 71.7021 8.87467 71.9688 9.408C72.1394 9.04533 72.3794 8.752 72.6888 8.528C72.9981 8.29333 73.3341 8.12267 73.6968 8.016C74.0701 7.89867 74.4221 7.84 74.7528 7.84C75.2648 7.84 75.7501 7.94667 76.2088 8.16C76.6781 8.37333 77.0621 8.704 77.3608 9.152C77.6594 9.6 77.8088 10.176 77.8088 10.88V16H76.5288V11.008C76.5288 10.2827 76.3474 9.76 75.9848 9.44C75.6221 9.12 75.1741 8.96 74.6408 8.96C74.2248 8.96 73.8354 9.06133 73.4728 9.264C73.1101 9.46667 72.8168 9.76533 72.5928 10.16C72.3794 10.5547 72.2728 11.04 72.2728 11.616V16H70.9928V11.008C70.9928 10.2827 70.8114 9.76 70.4488 9.44C70.0861 9.12 69.6381 8.96 69.1048 8.96C68.7528 8.96 68.3901 9.056 68.0168 9.248C67.6541 9.42933 67.3501 9.72267 67.1048 10.128C66.8594 10.5333 66.7368 11.0667 66.7368 11.728V16H65.4568ZM80.7068 16V8H81.8268L81.9068 9.248C82.1948 8.75733 82.5681 8.4 83.0268 8.176C83.4961 7.952 83.9761 7.84 84.4668 7.84C85.0321 7.84 85.5654 7.968 86.0668 8.224C86.5681 8.48 86.9521 8.87467 87.2188 9.408C87.3894 9.04533 87.6294 8.752 87.9388 8.528C88.2481 8.29333 88.5841 8.12267 88.9468 8.016C89.3201 7.89867 89.6721 7.84 90.0028 7.84C90.5148 7.84 91.0001 7.94667 91.4588 8.16C91.9281 8.37333 92.3121 8.704 92.6108 9.152C92.9094 9.6 93.0588 10.176 93.0588 10.88V16H91.7788V11.008C91.7788 10.2827 91.5974 9.76 91.2348 9.44C90.8721 9.12 90.4241 8.96 89.8908 8.96C89.4748 8.96 89.0854 9.06133 88.7228 9.264C88.3601 9.46667 88.0668 9.76533 87.8428 10.16C87.6294 10.5547 87.5228 11.04 87.5228 11.616V16H86.2428V11.008C86.2428 10.2827 86.0614 9.76 85.6988 9.44C85.3361 9.12 84.8881 8.96 84.3548 8.96C84.0028 8.96 83.6401 9.056 83.2668 9.248C82.9041 9.42933 82.6001 9.72267 82.3548 10.128C82.1094 10.5333 81.9868 11.0667 81.9868 11.728V16H80.7068ZM99.3008 16.16C98.5434 16.16 97.8661 15.9947 97.2688 15.664C96.6821 15.3333 96.2234 14.8587 95.8928 14.24C95.5621 13.6107 95.3968 12.864 95.3968 12C95.3968 11.136 95.5621 10.3947 95.8928 9.776C96.2234 9.14667 96.6768 8.66667 97.2528 8.336C97.8288 8.00533 98.4848 7.84 99.2208 7.84C99.9674 7.84 100.602 8 101.125 8.32C101.658 8.64 102.063 9.07733 102.341 9.632C102.618 10.176 102.757 10.7893 102.757 11.472C102.757 11.6533 102.751 11.8187 102.741 11.968C102.73 12.1173 102.714 12.2507 102.693 12.368H96.2288V11.232H102.133L101.477 11.36C101.477 10.592 101.263 10 100.837 9.584C100.421 9.168 99.8714 8.96 99.1888 8.96C98.6661 8.96 98.2128 9.08267 97.8288 9.328C97.4554 9.56267 97.1621 9.90933 96.9488 10.368C96.7461 10.816 96.6448 11.36 96.6448 12C96.6448 12.6293 96.7514 13.1733 96.9648 13.632C97.1781 14.0907 97.4768 14.4427 97.8608 14.688C98.2554 14.9227 98.7248 15.04 99.2688 15.04C99.8554 15.04 100.33 14.928 100.693 14.704C101.066 14.48 101.365 14.176 101.589 13.792L102.597 14.384C102.394 14.7467 102.133 15.0613 101.813 15.328C101.503 15.5947 101.135 15.8027 100.709 15.952C100.293 16.0907 99.8234 16.16 99.3008 16.16ZM105.191 16V8H106.311L106.423 9.792L106.215 9.616C106.386 9.18933 106.615 8.848 106.903 8.592C107.191 8.32533 107.522 8.13333 107.895 8.016C108.279 7.89867 108.674 7.84 109.079 7.84C109.655 7.84 110.178 7.952 110.647 8.176C111.116 8.38933 111.49 8.72 111.767 9.168C112.055 9.616 112.199 10.1867 112.199 10.88V16H110.919V11.328C110.919 10.4427 110.727 9.82933 110.343 9.488C109.97 9.136 109.506 8.96 108.951 8.96C108.567 8.96 108.183 9.05067 107.799 9.232C107.415 9.41333 107.095 9.70667 106.839 10.112C106.594 10.5173 106.471 11.0613 106.471 11.744V16H105.191ZM116.876 5.728V13.792C116.876 14.1867 116.988 14.48 117.212 14.672C117.436 14.864 117.724 14.96 118.076 14.96C118.385 14.96 118.652 14.9067 118.876 14.8C119.1 14.6933 119.303 14.5493 119.484 14.368L119.932 15.44C119.687 15.664 119.393 15.84 119.052 15.968C118.721 16.096 118.337 16.16 117.9 16.16C117.495 16.16 117.116 16.0907 116.764 15.952C116.412 15.8027 116.129 15.5733 115.916 15.264C115.713 14.944 115.607 14.528 115.596 14.016V6.08L116.876 5.728ZM119.788 8V9.104H113.996V8H119.788ZM124.571 16.16C123.792 16.16 123.072 15.9947 122.411 15.664C121.76 15.3333 121.259 14.864 120.907 14.256L121.995 13.472C122.23 13.9627 122.571 14.3467 123.019 14.624C123.478 14.9013 124.027 15.04 124.667 15.04C125.232 15.04 125.675 14.9333 125.995 14.72C126.315 14.496 126.475 14.208 126.475 13.856C126.475 13.632 126.4 13.4293 126.251 13.248C126.112 13.056 125.84 12.9173 125.435 12.832L123.515 12.432C122.736 12.272 122.176 12.0053 121.835 11.632C121.504 11.2587 121.339 10.7947 121.339 10.24C121.339 9.80267 121.462 9.40267 121.707 9.04C121.963 8.67733 122.32 8.38933 122.779 8.176C123.248 7.952 123.798 7.84 124.427 7.84C125.216 7.84 125.883 7.99467 126.427 8.304C126.971 8.61333 127.376 9.05067 127.643 9.616L126.571 10.32C126.39 9.85067 126.096 9.50933 125.691 9.296C125.286 9.072 124.864 8.96 124.427 8.96C124.043 8.96 123.712 9.01333 123.435 9.12C123.168 9.22667 122.96 9.376 122.811 9.568C122.672 9.74933 122.603 9.95733 122.603 10.192C122.603 10.4267 122.683 10.6453 122.843 10.848C123.003 11.04 123.302 11.1787 123.739 11.264L125.739 11.68C126.486 11.8293 127.008 12.0747 127.307 12.416C127.606 12.7573 127.755 13.1733 127.755 13.664C127.755 14.1653 127.622 14.608 127.355 14.992C127.088 15.3653 126.715 15.6533 126.235 15.856C125.755 16.0587 125.2 16.16 124.571 16.16Z" fill="white"/>
</svg>
