<svg width="20" height="20" viewBox="0 0 20 20" fill="none" xmlns="http://www.w3.org/2000/svg">
<path d="M10.0029 1C8.46561 0.999745 6.95384 1.39316 5.61172 2.14274C4.2696 2.89232 3.14185 3.97309 2.33596 5.28203C1.53007 6.59098 1.0729 8.08448 1.00802 9.62018C0.943143 11.1559 1.27272 12.6826 1.96534 14.0548L1.22307 17.2692C1.1759 17.4771 1.18218 17.6935 1.24133 17.8983C1.30047 18.1031 1.41056 18.2896 1.56131 18.4403C1.71205 18.591 1.89854 18.7011 2.10336 18.7602C2.30817 18.8193 2.52464 18.8256 2.73254 18.7785L5.94605 18.0363C7.15955 18.6481 8.49584 18.9771 9.85468 18.9988C11.2135 19.0206 12.5597 18.7344 13.7921 18.1617C15.0245 17.5891 16.1113 16.7448 16.9708 15.6923C17.8304 14.6399 18.4404 13.4064 18.7552 12.0846C19.07 10.7627 19.0813 9.38676 18.7884 8.0599C18.4954 6.73304 17.9058 5.48973 17.0637 4.42323C16.2216 3.35672 15.1489 2.49471 13.926 1.90184C12.7032 1.30898 11.3619 1.00066 10.0029 1ZM10.0029 12.7692H6.54084C6.3572 12.7692 6.18108 12.6963 6.05122 12.5665C5.92137 12.4366 5.84842 12.2605 5.84842 12.0769C5.84842 11.8933 5.92137 11.7172 6.05122 11.5874C6.18108 11.4576 6.3572 11.3846 6.54084 11.3846H10.0029C10.1866 11.3846 10.3627 11.4576 10.4925 11.5874C10.6224 11.7172 10.6953 11.8933 10.6953 12.0769C10.6953 12.2605 10.6224 12.4366 10.4925 12.5665C10.3627 12.6963 10.1866 12.7692 10.0029 12.7692ZM13.465 8.61539H6.54084C6.3572 8.61539 6.18108 8.54245 6.05122 8.41261C5.92137 8.28278 5.84842 8.10669 5.84842 7.92308C5.84842 7.73947 5.92137 7.56337 6.05122 7.43354C6.18108 7.30371 6.3572 7.23077 6.54084 7.23077H13.465C13.6487 7.23077 13.8248 7.30371 13.9546 7.43354C14.0845 7.56337 14.1574 7.73947 14.1574 7.92308C14.1574 8.10669 14.0845 8.28278 13.9546 8.41261C13.8248 8.54245 13.6487 8.61539 13.465 8.61539Z" fill="#404655"/>
</svg>
