<svg width="18" height="18" viewBox="0 0 18 18" fill="none" xmlns="http://www.w3.org/2000/svg">
<g clip-path="url(#clip0_2856_5734)">
<path d="M9 18C13.9693 18 18 13.9693 18 9C18 4.0307 13.9693 0 9 0C4.0307 0 0 4.0307 0 9C0 13.9693 4.0307 18 9 18ZM8.35712 3.85715C8.35712 3.50357 8.64642 3.21427 9 3.21427C9.35358 3.21427 9.64288 3.50357 9.64288 3.85715V8.69144L12.6161 11.07C12.8925 11.2918 12.9375 11.6968 12.7157 11.9732C12.5903 12.1307 12.4039 12.2143 12.2143 12.2143C12.0728 12.2143 11.9314 12.1693 11.8125 12.0728L8.59823 9.50144C8.44717 9.37928 8.35718 9.19609 8.35718 9V3.85715H8.35712Z" fill="#3A3E50"/>
</g>
<defs>
<clipPath id="clip0_2856_5734">
<rect width="18" height="18" fill="white"/>
</clipPath>
</defs>
</svg>
