<svg width="36" height="36" viewBox="0 0 36 36" fill="none" xmlns="http://www.w3.org/2000/svg">
<path d="M32.4135 20.3423L32.7573 16.6895C33.0273 13.8205 33.1623 12.3861 32.6715 11.7931C32.406 11.4723 32.045 11.2758 31.659 11.2419C30.9455 11.1792 30.0494 12.1994 28.2572 14.2396C27.3303 15.2947 26.8669 15.8223 26.3499 15.904C26.0635 15.9493 25.7716 15.9027 25.5071 15.7696C25.0297 15.5294 24.7115 14.8772 24.0749 13.5728L20.7196 6.69728C19.5167 4.23243 18.9153 3 18 3C17.0847 3 16.4833 4.23243 15.2804 6.69729L11.9251 13.5728C11.2885 14.8772 10.9703 15.5294 10.4929 15.7696C10.2284 15.9027 9.93651 15.9493 9.65006 15.904C9.13307 15.8223 8.66965 15.2947 7.7428 14.2396C5.95062 12.1994 5.05453 11.1792 4.34098 11.2419C3.95499 11.2758 3.59397 11.4723 3.32848 11.7931C2.83769 12.3861 2.9727 13.8205 3.24271 16.6895L3.5865 20.3423C4.15298 26.3612 4.43622 29.3707 6.21014 31.1854C7.98407 33 10.6427 33 15.9601 33H20.0399C25.3572 33 28.0159 33 29.7899 31.1854C31.5638 29.3707 31.847 26.3612 32.4135 20.3423Z" stroke="#00F0E4" stroke-width="3"/>
<path d="M13.5 27H22.5" stroke="#00F0E4" stroke-width="3" stroke-linecap="round"/>
</svg>
