<svg width="36" height="36" viewBox="0 0 36 36" fill="none" xmlns="http://www.w3.org/2000/svg">
<path d="M18 24C9.36008 24 7.8295 15.3893 7.55836 8.5597C7.48294 6.65996 7.44523 5.71009 8.1588 4.83125C8.87238 3.9524 9.72643 3.80831 11.4345 3.52011C13.1206 3.23563 15.3247 3 18 3C20.6753 3 22.8794 3.23563 24.5654 3.52011C26.2735 3.80831 27.1276 3.9524 27.8412 4.83125C28.5547 5.71009 28.517 6.65996 28.4416 8.5597C28.1705 15.3893 26.6399 24 18 24Z" stroke="#00F0E4" stroke-width="3"/>
<path d="M28.5 7.5L29.9229 7.97431C31.408 8.46934 32.1506 8.71685 32.5753 9.30612C33 9.89539 33 10.6781 32.9999 12.2435L32.9999 12.3523C32.9999 13.6434 32.9999 14.289 32.6891 14.8171C32.3783 15.3453 31.814 15.6588 30.6853 16.2859L26.25 18.75" stroke="#00F0E4" stroke-width="3"/>
<path d="M7.49991 7.5L6.07698 7.97431C4.59189 8.46934 3.84935 8.71685 3.42464 9.30612C2.99994 9.89539 2.99996 10.6781 3 12.2435L3 12.3523C3.00004 13.6434 3.00006 14.289 3.31084 14.8171C3.62162 15.3453 4.18594 15.6588 5.31457 16.2859L9.74991 18.75" stroke="#00F0E4" stroke-width="3"/>
<path d="M18 25.5V28.5" stroke="#00F0E4" stroke-width="3" stroke-linecap="round"/>
<path d="M23.25 33H12.75L13.2588 30.4558C13.3991 29.7547 14.0147 29.25 14.7297 29.25H21.2703C21.9853 29.25 22.6009 29.7547 22.7412 30.4558L23.25 33Z" stroke="#00F0E4" stroke-width="3" stroke-linecap="round" stroke-linejoin="round"/>
<path d="M27 33H9" stroke="#00F0E4" stroke-width="3" stroke-linecap="round"/>
</svg>
