<svg width="102" height="40" viewBox="0 0 102 40" fill="none" xmlns="http://www.w3.org/2000/svg">
<path d="M29.5873 19.9924L33.6034 22.3188C34.1805 22.6536 34.6597 23.135 34.9929 23.7148C35.326 24.2946 35.5014 24.9522 35.5014 25.6217V28.0855C35.5014 28.7549 35.326 29.4126 34.9929 29.9924C34.6597 30.5721 34.1805 31.0536 33.6034 31.3883L29.5873 33.7148L23.6504 37.1549L19.6266 39.489C19.0496 39.8238 18.395 40 17.7286 40C17.0623 40 16.4077 39.8238 15.8306 39.489L11.8145 37.1549V30.2899L17.7286 33.7224L23.6504 30.2899L29.5645 26.865L23.6504 23.4325L17.7286 20L23.6504 16.5599L29.5645 13.135L23.6504 9.70248L17.7286 6.27758L11.8145 2.84506L15.8306 0.510957C16.4077 0.176217 17.0623 0 17.7286 0C18.395 0 19.0496 0.176217 19.6266 0.510957L23.6428 2.84506L29.5493 6.27758L33.5655 8.61168C34.1425 8.94641 34.6217 9.42786 34.9549 10.0076C35.2881 10.5874 35.4635 11.2451 35.4635 11.9145V14.3707C35.4635 15.0402 35.2881 15.6978 34.9549 16.2776C34.6217 16.8573 34.1425 17.3388 33.5655 17.6735L29.5873 19.9924Z" fill="white"/>
<path d="M11.8207 9.71249L5.91417 13.1298V33.7248L1.90557 31.3984C1.32711 31.0646 0.84641 30.5835 0.511871 30.0037C0.177332 29.4239 0.00078542 28.7657 0 28.0955V11.9017C1.69272e-05 11.2322 0.175414 10.5746 0.508581 9.99479C0.841749 9.41502 1.32095 8.93357 1.898 8.59884L4.00857 7.37839C4.58564 7.04365 5.24023 6.86743 5.90657 6.86743C6.57291 6.86743 7.2275 7.04365 7.80457 7.37839L11.8207 9.71249Z" fill="white"/>
<path d="M23.6466 16.5723L17.7249 20.0048L13.7087 22.3313C13.1316 22.666 12.477 22.8423 11.8107 22.8423C11.1444 22.8423 10.4898 22.666 9.91269 22.3313L5.88135 20.0048L11.7955 16.5799L15.8193 14.2458C16.3963 13.9111 17.0509 13.7349 17.7173 13.7349C18.3836 13.7349 19.0382 13.9111 19.6153 14.2458L23.6466 16.5723Z" fill="white"/>
<path d="M97.3639 36.3041C96.4334 36.3041 95.6304 36.1706 94.9547 35.9035C94.2901 35.6254 93.7862 35.2582 93.4428 34.8021C93.0994 34.3459 92.9277 33.8564 92.9277 33.3335C92.9277 32.9552 93.0219 32.6659 93.2102 32.4656C93.4096 32.2543 93.7031 32.143 94.0908 32.1319C94.0908 33.1221 94.3732 33.8731 94.9381 34.3849C95.5141 34.8966 96.3393 35.1525 97.4137 35.1525C98.4217 35.1525 99.2026 34.9745 99.7564 34.6185C100.321 34.2513 100.604 33.734 100.604 33.0664C100.604 32.6548 100.504 32.3155 100.305 32.0484C100.105 31.7703 99.7619 31.5366 99.2746 31.3475C98.7872 31.1472 98.1005 30.9525 97.2143 30.7634C95.7412 30.463 94.6889 30.0569 94.0575 29.5451C93.4373 29.0222 93.1271 28.3101 93.1271 27.409C93.1271 26.7859 93.2988 26.2407 93.6422 25.7735C93.9855 25.3062 94.4729 24.9501 95.1043 24.7054C95.7467 24.4495 96.4888 24.3215 97.3306 24.3215C98.106 24.3215 98.8094 24.4384 99.4407 24.672C100.083 24.9056 100.582 25.2339 100.936 25.6566C101.302 26.0794 101.484 26.5578 101.484 27.0919C101.484 27.3923 101.39 27.637 101.202 27.8262C101.025 28.0042 100.753 28.0988 100.388 28.1099C100.31 27.1976 100.011 26.53 99.4906 26.1072C98.9811 25.6733 98.25 25.4564 97.2974 25.4564C96.3891 25.4564 95.6858 25.6233 95.1873 25.957C94.7 26.2908 94.4563 26.7581 94.4563 27.3589C94.4563 27.7705 94.5449 28.1099 94.7221 28.3769C94.9104 28.6439 95.2206 28.872 95.6526 29.0611C96.0845 29.2503 96.6882 29.4283 97.4636 29.5952C98.5823 29.8288 99.4629 30.0958 100.105 30.3962C100.759 30.6966 101.224 31.0582 101.501 31.481C101.789 31.9038 101.933 32.4323 101.933 33.0664C101.933 34.0678 101.518 34.8577 100.687 35.4363C99.8672 36.0148 98.7595 36.3041 97.3639 36.3041Z" fill="white"/>
<path d="M83.2627 25.4897C83.2627 25.1226 83.379 24.8389 83.6116 24.6386C83.8553 24.4272 84.182 24.3215 84.5919 24.3215V30.196L90.839 24.3215C91.1824 24.6331 91.3541 24.9001 91.3541 25.1226C91.3541 25.3785 91.2101 25.6399 90.9221 25.907L86.8016 29.7954L91.9855 35.9703C91.8858 36.0704 91.7639 36.1483 91.6199 36.2039C91.487 36.2707 91.3596 36.3041 91.2378 36.3041C90.8501 36.3041 90.54 36.165 90.3074 35.8868L85.8546 30.6299L84.5919 31.8148V35.1692C84.5919 35.9258 84.1488 36.3041 83.2627 36.3041V25.4897Z" fill="white"/>
<path d="M76.5111 36.3041C75.5917 36.3041 74.7721 36.1372 74.0521 35.8034C73.3432 35.4585 72.7894 34.9801 72.3906 34.3682C71.9919 33.7562 71.7925 33.0609 71.7925 32.2821V28.3101C71.7925 27.5313 71.9919 26.8415 72.3906 26.2407C72.7894 25.6399 73.3432 25.1727 74.0521 24.8389C74.761 24.494 75.5696 24.3215 76.4779 24.3215C77.3861 24.3215 78.1947 24.4717 78.9036 24.7721C79.6125 25.0614 80.1663 25.4675 80.5651 25.9904C80.9638 26.5133 81.1632 27.1086 81.1632 27.7761C81.1632 28.0765 81.0635 28.3157 80.8642 28.4937C80.6648 28.6717 80.3934 28.7607 80.05 28.7607L79.8507 28.7441C79.8728 28.6328 79.8839 28.4381 79.8839 28.1599C79.8839 27.6482 79.7399 27.192 79.4519 26.7915C79.1639 26.3798 78.7596 26.0627 78.239 25.8402C77.7295 25.6177 77.1424 25.5064 76.4779 25.5064C75.8243 25.5064 75.2428 25.6288 74.7333 25.8736C74.2238 26.1072 73.825 26.4354 73.537 26.8582C73.2601 27.281 73.1217 27.765 73.1217 28.3101V32.2821C73.1217 32.8272 73.2657 33.3168 73.5536 33.7507C73.8416 34.1846 74.2404 34.5239 74.7499 34.7687C75.2705 35.0023 75.8576 35.1192 76.5111 35.1192C77.1867 35.1192 77.7849 35.0079 78.3055 34.7854C78.8261 34.5629 79.2304 34.2513 79.5184 33.8508C79.8174 33.4392 79.967 32.9719 79.967 32.449C79.967 32.2598 79.9559 32.0651 79.9337 31.8649L80.1165 31.8482C80.4599 31.8482 80.7312 31.9483 80.9306 32.1486C81.1411 32.3488 81.2463 32.6158 81.2463 32.9496C81.2463 33.5949 81.0469 34.1735 80.6482 34.6853C80.2494 35.197 79.69 35.5976 78.9701 35.8868C78.2501 36.165 77.4304 36.3041 76.5111 36.3041Z" fill="white"/>
<path d="M65.1097 36.3041C64.1904 36.3041 63.3707 36.1205 62.6507 35.7533C61.9418 35.3862 61.3825 34.8855 60.9726 34.2513C60.5739 33.606 60.3745 32.8884 60.3745 32.0985V28.4937C60.3745 27.7038 60.5739 26.9917 60.9726 26.3576C61.3714 25.7234 61.9252 25.2283 62.6341 24.8723C63.3541 24.5051 64.1793 24.3215 65.1097 24.3215C66.0402 24.3215 66.8654 24.5051 67.5853 24.8723C68.3053 25.2283 68.8647 25.7234 69.2634 26.3576C69.6622 26.9806 69.8616 27.6927 69.8616 28.4937V32.0985C69.8616 32.8996 69.6622 33.6172 69.2634 34.2513C68.8647 34.8855 68.2998 35.3862 67.5687 35.7533C66.8487 36.1205 66.0291 36.3041 65.1097 36.3041ZM65.1097 35.1359C66.2063 35.1359 67.0537 34.8633 67.6518 34.3181C68.261 33.7618 68.5656 33.0164 68.5656 32.0818V28.5104C68.5656 27.587 68.2665 26.8527 67.6684 26.3075C67.0703 25.7623 66.2174 25.4897 65.1097 25.4897C64.0242 25.4897 63.1769 25.7623 62.5677 26.3075C61.9695 26.8527 61.6705 27.587 61.6705 28.5104V32.0818C61.6705 33.0164 61.9695 33.7618 62.5677 34.3181C63.1769 34.8633 64.0242 35.1359 65.1097 35.1359Z" fill="white"/>
<path d="M53.0826 36.1539C52.8943 36.1539 52.7281 36.0871 52.5841 35.9536C52.4512 35.8201 52.3848 35.6588 52.3848 35.4696V25.4897C52.3848 24.7109 52.8278 24.3215 53.7139 24.3215V34.969H59.0307C59.3851 34.969 59.651 35.0747 59.8282 35.286C60.0165 35.4863 60.1106 35.7756 60.1106 36.1539H53.0826Z" fill="white"/>
<path d="M42.1832 36.0801C41.9949 36.0801 41.8342 36.0189 41.7013 35.8965C41.5684 35.7741 41.502 35.6239 41.502 35.4459V25.0321C41.502 24.8541 41.5684 24.7039 41.7013 24.5815C41.8342 24.4591 41.9949 24.3979 42.1832 24.3979H46.8685C47.7879 24.3979 48.5189 24.6872 49.0617 25.2658C49.6155 25.8332 49.8924 26.6009 49.8924 27.5688C49.8924 28.1029 49.7484 28.6091 49.4604 29.0875C49.1724 29.5548 48.8069 29.8941 48.3639 30.1055V30.1389C49.0063 30.328 49.4992 30.6562 49.8426 31.1235C50.197 31.5797 50.3743 32.1471 50.3743 32.8258C50.3743 33.4599 50.2413 34.0274 49.9755 34.528C49.7207 35.0176 49.3607 35.4014 48.8955 35.6795C48.4303 35.9466 47.8986 36.0801 47.3005 36.0801H42.1832ZM46.8353 29.6549C47.3227 29.6549 47.738 29.4546 48.0814 29.0541C48.4359 28.6536 48.6131 28.164 48.6131 27.5855C48.6131 26.9402 48.4525 26.4395 48.1313 26.0835C47.8211 25.7275 47.3891 25.5495 46.8353 25.5495H42.8145V29.6549H46.8353ZM47.1676 34.9286C47.7768 34.9286 48.2476 34.745 48.5799 34.3778C48.9232 34.0107 49.0949 33.4989 49.0949 32.8425C49.0949 32.1972 48.9232 31.6965 48.5799 31.3405C48.2476 30.9844 47.7768 30.8064 47.1676 30.8064H42.8145V34.9286H47.1676Z" fill="white"/>
<path d="M97.3148 18.7255C95.9003 18.7255 94.7837 18.4924 93.9659 18.0263C93.1473 17.5464 92.7388 16.9087 92.7388 16.1135C92.7388 15.7569 92.8911 15.4553 93.1964 15.2085C93.5149 14.9617 94.0215 14.8382 94.7149 14.8382C94.8254 15.3867 95.1029 15.8187 95.5466 16.134C95.9903 16.4357 96.5109 16.5865 97.1069 16.5865C97.8002 16.5865 98.3347 16.5042 98.7089 16.3397C99.0969 16.1751 99.2917 15.9352 99.2917 15.6198C99.2917 15.3456 99.1387 15.1056 98.8333 14.9C98.5288 14.6943 97.9181 14.4818 97.0029 14.2623C95.9354 14.0156 95.1029 13.7688 94.507 13.5219C93.9241 13.2614 93.4944 12.9392 93.2169 12.5553C92.9394 12.1713 92.801 11.664 92.801 11.0332C92.801 10.142 93.1751 9.42896 93.9241 8.89422C94.6871 8.34574 95.748 8.07153 97.1069 8.07153C98.4387 8.07153 99.5201 8.29777 100.353 8.75024C101.184 9.20272 101.6 9.80604 101.6 10.5602C101.6 10.9441 101.455 11.2252 101.164 11.4034C100.872 11.568 100.387 11.6571 99.7076 11.6709C99.5274 11.1498 99.2499 10.7659 98.8751 10.519C98.5148 10.2585 97.9943 10.1283 97.3148 10.1283C96.8294 10.1283 96.3996 10.2105 96.0255 10.3751C95.6506 10.5396 95.4639 10.7385 95.4639 10.9715C95.4639 11.2321 95.6162 11.4377 95.9215 11.5886C96.24 11.7394 96.7672 11.8902 97.5023 12.0411C99.0969 12.3839 100.241 12.8363 100.935 13.3986C101.642 13.9607 101.996 14.7217 101.996 15.6816C101.996 16.2711 101.809 16.7991 101.434 17.2652C101.06 17.7314 100.519 18.0948 99.8115 18.3553C99.1042 18.6022 98.2718 18.7255 97.3148 18.7255Z" fill="white"/>
<path d="M90.5241 7.11532C90.0031 7.11532 89.5633 6.96303 89.2068 6.65831C88.8634 6.33978 88.6924 5.93124 88.6924 5.43268C88.6924 4.9341 88.8634 4.53248 89.2068 4.2278C89.5633 3.90927 90.0031 3.75 90.5241 3.75C91.0458 3.75 91.4784 3.90927 91.8211 4.2278C92.1783 4.53248 92.3565 4.9341 92.3565 5.43268C92.3565 5.93124 92.1783 6.33978 91.8211 6.65831C91.4784 6.96303 91.0458 7.11532 90.5241 7.11532ZM89.1039 9.56661C89.1039 8.97113 89.3373 8.54875 89.8039 8.29942C90.2705 8.03628 90.977 7.90475 91.924 7.90475V17.0036C91.924 17.5991 91.6907 18.0285 91.224 18.2916C90.7574 18.5409 90.051 18.6656 89.1039 18.6656V9.56661Z" fill="white"/>
<path d="M85.6778 18.7077C84.4943 18.7077 83.6237 18.3714 83.0667 17.6988C82.5097 17.0263 82.2312 16.1615 82.2312 15.1046V10.3075H80.0171C80.0171 9.60741 80.1494 9.08582 80.414 8.74267C80.6786 8.39952 81.0267 8.22795 81.4583 8.22795H82.273V6.60145C82.273 6.01123 82.5027 5.5926 82.9622 5.34553C83.4218 5.08474 84.1179 4.95435 85.0508 4.95435V8.22795H87.8289C87.8289 8.96914 87.6899 9.5045 87.4113 9.83389C87.1327 10.1496 86.6732 10.3075 86.0329 10.3075H85.0927V15.0017C85.0927 15.4547 85.1831 15.784 85.3647 15.9899C85.5455 16.1821 85.8587 16.2782 86.3042 16.2782C86.7916 16.2782 87.2929 16.1409 87.8083 15.8664C87.9612 16.0037 88.0795 16.1753 88.1634 16.3811C88.2604 16.587 88.3097 16.7929 88.3097 16.9988C88.3097 17.2733 88.2119 17.541 88.0171 17.8018C87.8222 18.0626 87.523 18.2822 87.1187 18.4606C86.7291 18.6253 86.2483 18.7077 85.6778 18.7077Z" fill="white"/>
<path d="M69.9839 10.2105C69.9839 9.52496 70.2125 8.99703 70.6697 8.62682C71.1269 8.2566 71.8057 8.07153 72.7062 8.07153V9.28498C72.4984 9.50442 72.3252 9.73753 72.1867 9.98431L72.3321 10.0666C72.7478 9.43583 73.2743 8.94906 73.9115 8.60627C74.5627 8.2498 75.2831 8.07153 76.0728 8.07153C76.7655 8.07153 77.3751 8.22918 77.9016 8.54455C78.4419 8.85993 78.8644 9.29873 79.1692 9.86088C79.474 10.4094 79.6264 11.0264 79.6264 11.7119V17.0801C79.6264 17.6697 79.3909 18.0948 78.9199 18.3553C78.4488 18.6022 77.7353 18.7255 76.7794 18.7255V12.1439C76.7794 11.6777 76.627 11.2869 76.3222 10.9715C76.0312 10.6561 75.6156 10.4985 75.0753 10.4985C74.4103 10.4985 73.87 10.711 73.4543 11.1361C73.0387 11.5612 72.8309 12.0959 72.8309 12.7404V17.0801C72.8309 17.6697 72.5954 18.0948 72.1244 18.3553C71.6671 18.6022 70.9537 18.7255 69.9839 18.7255V10.2105Z" fill="white"/>
<path d="M64.1992 18.7255C63.3003 18.7255 62.4832 18.561 61.7477 18.2319C61.0123 17.9028 60.4334 17.4504 60.0112 16.8745C59.589 16.2849 59.3779 15.6198 59.3779 14.8794V12.1439C59.3779 11.3898 59.5823 10.7042 59.9908 10.0871C60.3994 9.45638 60.9714 8.96281 61.7069 8.60627C62.4423 8.2498 63.2731 8.07153 64.1992 8.07153C65.1253 8.07153 65.9561 8.2498 66.6915 8.60627C67.427 8.96281 67.999 9.45638 68.4076 10.0871C68.8162 10.7042 69.0204 11.3898 69.0204 12.1439V14.8794C69.0204 15.6198 68.8093 16.2849 68.3871 16.8745C67.9649 17.4504 67.3861 17.9028 66.6507 18.2319C65.9153 18.561 65.098 18.7255 64.1992 18.7255ZM64.1992 16.2985C64.8393 16.2985 65.3364 16.1546 65.6905 15.8666C66.0446 15.5787 66.2216 15.181 66.2216 14.6737V12.2878C66.2216 11.7531 66.0378 11.3212 65.6701 10.9921C65.316 10.663 64.8257 10.4985 64.1992 10.4985C63.5727 10.4985 63.0756 10.663 62.7079 10.9921C62.3538 11.3212 62.1767 11.7531 62.1767 12.2878V14.6737C62.1767 15.181 62.3538 15.5787 62.7079 15.8666C63.062 16.1546 63.5591 16.2985 64.1992 16.2985Z" fill="white"/>
<path d="M57.1644 10.4985C56.3524 10.4985 55.696 10.711 55.1953 11.1361C54.6945 11.5612 54.4442 12.0959 54.4442 12.7404V17.0801C54.4442 17.6697 54.2141 18.0948 53.754 18.3553C53.3074 18.6022 52.6105 18.7255 51.6631 18.7255V10.2105C51.6631 9.52496 51.8864 8.99703 52.333 8.62682C52.7796 8.2566 53.4427 8.07153 54.3224 8.07153V9.28498C54.1194 9.50442 53.9502 9.73753 53.8149 9.98431L53.957 10.0666C54.8096 8.73657 55.872 8.07153 57.1441 8.07153C57.7531 8.07153 58.2132 8.23606 58.5245 8.5651C58.8358 8.89422 58.9914 9.3124 58.9914 9.81979C58.9914 10.2037 58.8899 10.5396 58.6869 10.8275C58.3079 10.6082 57.8005 10.4985 57.1644 10.4985Z" fill="white"/>
<path d="M42.0273 5.39268C42.0273 5.00508 42.1728 4.67977 42.4637 4.41676C42.7685 4.13989 43.1356 4.00146 43.5651 4.00146H53.0198C53.0198 4.9151 52.8674 5.57956 52.5626 5.99484C52.2579 6.41015 51.7661 6.6178 51.0873 6.6178H45.082V9.79474H50.5263C50.5263 10.7083 50.3739 11.3728 50.0691 11.788C49.7644 12.2034 49.2725 12.411 48.5938 12.411H45.082V16.6262C45.082 17.3599 44.8395 17.8928 44.3546 18.225C43.8837 18.5572 43.1079 18.7233 42.0273 18.7233V5.39268Z" fill="white"/>
</svg>