<svg width="125" height="34" viewBox="0 0 125 34" fill="none" xmlns="http://www.w3.org/2000/svg">
<path d="M0 7.72727C0 3.45962 3.45962 0 7.72727 0H26.2727C30.5404 0 34 3.45962 34 7.72727V26.2727C34 30.5404 30.5404 34 26.2727 34H7.72727C3.45962 34 0 30.5404 0 26.2727V7.72727Z" fill="#3773FE"/>
<path d="M118.438 27.2726C116.506 27.2726 114.981 26.9504 113.864 26.3061C112.746 25.6428 112.188 24.7615 112.188 23.6623C112.188 23.1695 112.396 22.7526 112.813 22.4114C113.248 22.0703 113.94 21.8997 114.887 21.8997C115.038 22.6578 115.417 23.2548 116.023 23.6907C116.629 24.1076 117.34 24.3161 118.154 24.3161C119.101 24.3161 119.831 24.2024 120.342 23.975C120.872 23.7475 121.138 23.4159 121.138 22.98C121.138 22.6009 120.929 22.2693 120.512 21.985C120.096 21.7007 119.262 21.407 118.012 21.1037C116.554 20.7626 115.417 20.4215 114.603 20.0803C113.807 19.7202 113.22 19.2749 112.841 18.7442C112.462 18.2135 112.273 17.5123 112.273 16.6405C112.273 15.4086 112.784 14.4231 113.807 13.684C114.849 12.9259 116.298 12.5469 118.154 12.5469C119.973 12.5469 121.45 12.8596 122.587 13.485C123.723 14.1104 124.291 14.9443 124.291 15.9867C124.291 16.5173 124.092 16.9058 123.695 17.1522C123.297 17.3797 122.634 17.5028 121.706 17.5218C121.46 16.8016 121.081 16.271 120.569 15.9298C120.077 15.5697 119.366 15.3897 118.438 15.3897C117.775 15.3897 117.188 15.5034 116.677 15.7308C116.165 15.9582 115.91 16.2331 115.91 16.5552C115.91 16.9153 116.118 17.1996 116.535 17.4081C116.97 17.6166 117.69 17.825 118.694 18.0335C120.872 18.5073 122.435 19.1327 123.382 19.9098C124.348 20.6868 124.831 21.7386 124.831 23.0653C124.831 23.8802 124.576 24.6099 124.064 25.2542C123.553 25.8986 122.814 26.4008 121.848 26.7609C120.882 27.1021 119.745 27.2726 118.438 27.2726Z" fill="#0D173B"/>
<path d="M109.044 11.3436C108.325 11.3436 107.718 11.1352 107.226 10.7182C106.752 10.2823 106.516 9.72323 106.516 9.04096C106.516 8.35868 106.752 7.80907 107.226 7.39213C107.718 6.95623 108.325 6.73828 109.044 6.73828C109.764 6.73828 110.361 6.95623 110.834 7.39213C111.327 7.80907 111.573 8.35868 111.573 9.04096C111.573 9.72323 111.327 10.2823 110.834 10.7182C110.361 11.1352 109.764 11.3436 109.044 11.3436ZM107.084 14.6981C107.084 13.8832 107.406 13.3052 108.05 12.964C108.694 12.6039 109.669 12.4239 110.976 12.4239V24.8754C110.976 25.6903 110.654 26.2779 110.01 26.6379C109.366 26.9791 108.391 27.1497 107.084 27.1497V14.6981Z" fill="#0D173B"/>
<path d="M102.333 27.2126C100.723 27.2126 99.5388 26.7483 98.7811 25.8196C98.0234 24.891 97.6446 23.697 97.6446 22.2377V15.614H94.6328C94.6328 14.6474 94.8128 13.9272 95.1727 13.4534C95.5326 12.9796 96.0061 12.7427 96.5933 12.7427H97.7014V10.4969C97.7014 9.68196 98.0139 9.10393 98.639 8.76279C99.2641 8.4027 100.211 8.22266 101.48 8.22266V12.7427H105.259C105.259 13.7661 105.07 14.5053 104.691 14.9601C104.312 15.396 103.687 15.614 102.816 15.614H101.537V22.0956C101.537 22.721 101.66 23.1758 101.907 23.4601C102.153 23.7254 102.579 23.8581 103.185 23.8581C103.848 23.8581 104.53 23.6686 105.231 23.2895C105.439 23.4791 105.6 23.716 105.714 24.0002C105.846 24.2845 105.913 24.5688 105.913 24.8531C105.913 25.2321 105.78 25.6017 105.515 25.9618C105.25 26.3219 104.843 26.6251 104.293 26.8715C103.763 27.0989 103.109 27.2126 102.333 27.2126Z" fill="#0D173B"/>
<path d="M80.8438 15.5034C80.8438 14.5558 81.1563 13.8261 81.7814 13.3144C82.4065 12.8027 83.3346 12.5469 84.5658 12.5469V14.2241C84.2817 14.5274 84.0449 14.8496 83.8555 15.1907L84.0544 15.3044C84.6227 14.4326 85.3425 13.7598 86.2138 13.286C87.1041 12.7933 88.089 12.5469 89.1687 12.5469C90.1158 12.5469 90.9493 12.7648 91.6691 13.2007C92.4078 13.6366 92.9855 14.2431 93.4022 15.0201C93.819 15.7782 94.0273 16.631 94.0273 17.5786V24.9984C94.0273 25.8133 93.7053 26.4008 93.0613 26.7609C92.4173 27.1021 91.4417 27.2726 90.1348 27.2726V18.1756C90.1348 17.5313 89.9264 16.9911 89.5097 16.5552C89.1119 16.1193 88.5436 15.9014 87.8049 15.9014C86.8957 15.9014 86.157 16.1951 85.5887 16.7827C85.0204 17.3702 84.7363 18.1093 84.7363 19.0001V24.9984C84.7363 25.8133 84.4143 26.4008 83.7703 26.7609C83.1452 27.1021 82.1697 27.2726 80.8438 27.2726V15.5034Z" fill="#0D173B"/>
<path d="M72.7914 27.2726C71.5412 27.2726 70.4047 27.0452 69.3818 26.5904C68.359 26.1355 67.5539 25.5101 66.9667 24.7141C66.3795 23.8992 66.0859 22.98 66.0859 21.9566V18.1756C66.0859 17.1333 66.3701 16.1857 66.9383 15.3328C67.5066 14.461 68.3021 13.7788 69.325 13.286C70.3479 12.7933 71.5033 12.5469 72.7914 12.5469C74.0794 12.5469 75.2349 12.7933 76.2577 13.286C77.2806 13.7788 78.0762 14.461 78.6444 15.3328C79.2127 16.1857 79.4968 17.1333 79.4968 18.1756V21.9566C79.4968 22.98 79.2032 23.8992 78.616 24.7141C78.0288 25.5101 77.2238 26.1355 76.2009 26.5904C75.1781 27.0452 74.0415 27.2726 72.7914 27.2726ZM72.7914 23.9181C73.6816 23.9181 74.373 23.7191 74.8655 23.3211C75.358 22.9231 75.6042 22.3735 75.6042 21.6723V18.3746C75.6042 17.6355 75.3485 17.0385 74.8371 16.5837C74.3446 16.1288 73.6627 15.9014 72.7914 15.9014C71.92 15.9014 71.2287 16.1288 70.7172 16.5837C70.2247 17.0385 69.9785 17.6355 69.9785 18.3746V21.6723C69.9785 22.3735 70.2247 22.9231 70.7172 23.3211C71.2097 23.7191 71.9011 23.9181 72.7914 23.9181Z" fill="#0D173B"/>
<path d="M63.1061 15.9014C61.9696 15.9014 61.0509 16.1951 60.3501 16.7827C59.6492 17.3702 59.2988 18.1093 59.2988 19.0001V24.9984C59.2988 25.8133 58.9768 26.4008 58.3328 26.7609C57.7077 27.1021 56.7322 27.2726 55.4062 27.2726V15.5034C55.4062 14.5558 55.7188 13.8261 56.3439 13.3144C56.969 12.8027 57.8971 12.5469 59.1283 12.5469V14.2241C58.8442 14.5274 58.6074 14.8496 58.418 15.1907L58.6169 15.3044C59.8102 13.4661 61.2972 12.5469 63.0777 12.5469C63.9301 12.5469 64.5741 12.7743 65.0098 13.2291C65.4455 13.684 65.6633 14.262 65.6633 14.9633C65.6633 15.4939 65.5212 15.9582 65.2371 16.3562C64.7067 16.053 63.9964 15.9014 63.1061 15.9014Z" fill="#0D173B"/>
<path d="M42.375 8.975C42.375 8.44434 42.5739 7.99897 42.9717 7.63888C43.3884 7.25983 43.8904 7.07031 44.4776 7.07031H57.4054C57.4054 8.32115 57.197 9.23085 56.7803 9.79941C56.3636 10.368 55.6912 10.6523 54.763 10.6523H46.5517V15.0018H53.9959C53.9959 16.2526 53.7875 17.1623 53.3708 17.7308C52.9541 18.2994 52.2816 18.5837 51.3535 18.5837H46.5517V24.3546C46.5517 25.3591 46.2202 26.0887 45.5572 26.5436C44.9132 26.9984 43.8525 27.2258 42.375 27.2258V8.975Z" fill="#0D173B"/>
<path d="M13.7609 9.34375H25.8894V10.4543C25.8894 12.1095 24.5473 13.4532 22.8941 13.4532H10.7656V12.3426C10.7656 10.6875 12.1077 9.34375 13.7609 9.34375Z" fill="white"/>
<path d="M11.3937 14.7695H18.3203V15.8801C18.3203 17.5353 16.9783 18.879 15.3251 18.879H8.39844V17.7684C8.39844 16.1132 9.74051 14.7695 11.3937 14.7695Z" fill="white"/>
<path d="M14.5801 20.0273H13.0331C10.4732 20.0273 8.39844 22.1028 8.39844 24.6636H9.94546C12.5053 24.6636 14.5801 22.5881 14.5801 20.0273Z" fill="white"/>
<path d="M23.4765 16.8203C23.4765 17.9572 22.5548 18.8788 21.4179 18.8788C20.281 18.8788 19.3594 17.9572 19.3594 16.8203C19.3594 15.6834 20.281 14.7617 21.4179 14.7617C22.5548 14.7617 23.4765 15.6834 23.4765 16.8203Z" fill="white"/>
</svg>
