<svg width="32" height="32" viewBox="0 0 32 32" fill="none" xmlns="http://www.w3.org/2000/svg">
<path d="M7.34268 5.39683C8.10261 4.51025 9.212 4 10.3797 4H21.6201C22.7878 4 23.8972 4.51025 24.6571 5.39683L26.9529 8.07527C26.6425 8.02573 26.3242 8 25.9999 8H5.9999C5.67557 8 5.35725 8.02573 5.04688 8.07527L7.34268 5.39683Z" fill="white"/>
<path fill-rule="evenodd" clip-rule="evenodd" d="M2 14C2 11.7909 3.79086 10 6 10H26C28.2091 10 30 11.7909 30 14C30 16.2091 28.2091 18 26 18H6C3.79086 18 2 16.2091 2 14ZM22 14C22 14.5523 21.5523 15 21 15C20.4477 15 20 14.5523 20 14C20 13.4477 20.4477 13 21 13C21.5523 13 22 13.4477 22 14ZM25 15C25.5523 15 26 14.5523 26 14C26 13.4477 25.5523 13 25 13C24.4477 13 24 13.4477 24 14C24 14.5523 24.4477 15 25 15Z" fill="white"/>
<path fill-rule="evenodd" clip-rule="evenodd" d="M6 20C3.79086 20 2 21.7909 2 24C2 26.2091 3.79086 28 6 28H26C28.2091 28 30 26.2091 30 24C30 21.7909 28.2091 20 26 20H6ZM21 25C21.5523 25 22 24.5523 22 24C22 23.4477 21.5523 23 21 23C20.4477 23 20 23.4477 20 24C20 24.5523 20.4477 25 21 25ZM26 24C26 24.5523 25.5523 25 25 25C24.4477 25 24 24.5523 24 24C24 23.4477 24.4477 23 25 23C25.5523 23 26 23.4477 26 24Z" fill="white"/>
</svg>
