<svg width="36" height="36" viewBox="0 0 36 36" fill="none" xmlns="http://www.w3.org/2000/svg">
<path d="M18 13.5C15.5147 13.5 13.5 11.4853 13.5 9C13.5 6.51472 15.5147 4.5 18 4.5C20.4853 4.5 22.5 6.51472 22.5 9C22.5 11.4853 20.4853 13.5 18 13.5Z" stroke="#00F0E4" stroke-width="3"/>
<path d="M8.25 31.5C5.76472 31.5 3.75 29.4853 3.75 27C3.75 24.5147 5.76472 22.5 8.25 22.5C10.7353 22.5 12.75 24.5147 12.75 27C12.75 29.4853 10.7353 31.5 8.25 31.5Z" stroke="#00F0E4" stroke-width="3"/>
<path d="M27.75 31.5C25.2647 31.5 23.25 29.4853 23.25 27C23.25 24.5147 25.2647 22.5 27.75 22.5C30.2353 22.5 32.25 24.5147 32.25 27C32.25 29.4853 30.2353 31.5 27.75 31.5Z" stroke="#00F0E4" stroke-width="3"/>
<path d="M30 19.5C30 15.9159 28.4287 12.6988 25.9374 10.5M6 19.5C6 15.9159 7.57128 12.6988 10.0626 10.5M15 31.122C15.9589 31.3688 16.9641 31.5 18 31.5C19.0359 31.5 20.0411 31.3688 21 31.122" stroke="#00F0E4" stroke-width="3" stroke-linecap="round"/>
</svg>
