<svg width="36" height="36" viewBox="0 0 36 36" fill="none" xmlns="http://www.w3.org/2000/svg">
<path d="M17.4666 2.38447C17.7996 2.20518 18.2004 2.20518 18.5334 2.38447L33.1584 10.2595C33.5228 10.4557 33.75 10.8361 33.75 11.25C33.75 11.6639 33.5228 12.0443 33.1584 12.2405L18.5334 20.1155C18.2004 20.2948 17.7996 20.2948 17.4666 20.1155L2.84164 12.2405C2.47724 12.0443 2.25 11.6639 2.25 11.25C2.25 10.8361 2.47724 10.4557 2.84164 10.2595L17.4666 2.38447Z" fill="white"/>
<path d="M4.89702 15.9027L16.3999 22.0966C17.3988 22.6345 18.6012 22.6345 19.6001 22.0966L31.103 15.9027L33.1584 17.0095C33.5228 17.2057 33.75 17.5861 33.75 18C33.75 18.4139 33.5228 18.7943 33.1584 18.9905L18.5334 26.8655C18.2004 27.0448 17.7996 27.0448 17.4666 26.8655L2.84164 18.9905C2.47724 18.7943 2.25 18.4139 2.25 18C2.25 17.5861 2.47724 17.2057 2.84164 17.0095L4.89702 15.9027Z" fill="white"/>
<path d="M16.3999 28.8466L4.89702 22.6527L2.84164 23.7595C2.47724 23.9557 2.25 24.3361 2.25 24.75C2.25 25.1639 2.47724 25.5443 2.84164 25.7405L17.4666 33.6155C17.7996 33.7948 18.2004 33.7948 18.5334 33.6155L33.1584 25.7405C33.5228 25.5443 33.75 25.1639 33.75 24.75C33.75 24.3361 33.5228 23.9557 33.1584 23.7595L31.103 22.6527L19.6001 28.8466C18.6012 29.3845 17.3988 29.3845 16.3999 28.8466Z" fill="white"/>
</svg>
