<svg width="140" height="22" viewBox="0 0 140 22" fill="none" xmlns="http://www.w3.org/2000/svg">
<path d="M16.2024 5.19868H10.8716C10.6858 5.19885 10.5018 5.16332 10.3302 5.09415C10.1587 5.02497 10.0029 4.92351 9.87192 4.79563L8.84038 3.7947C8.58124 3.5419 8.27299 3.34149 7.93348 3.20508C7.59396 3.06867 7.22993 2.99897 6.86246 3.00001H3.79762C3.05592 3.0009 2.34487 3.28719 1.82041 3.79608C1.29596 4.30497 1.00092 4.99492 1 5.71459V16.2854C1.00092 17.0051 1.29596 17.695 1.82041 18.2039C2.34487 18.7128 3.05592 18.9991 3.79762 19H16.2024C16.9441 18.9993 17.6553 18.7131 18.1798 18.2041C18.7043 17.6952 18.9993 17.0051 19 16.2854V7.90991C18.9985 7.1907 18.7032 6.50141 18.1788 5.99317C17.6543 5.48493 16.9436 5.19921 16.2024 5.19868Z" fill="white"/>
<path d="M37.808 5.44V12.064C37.808 13.4187 37.4507 14.4427 36.736 15.136C36.0213 15.8187 34.9973 16.16 33.664 16.16C32.3413 16.16 31.3173 15.8187 30.592 15.136C29.8773 14.4427 29.52 13.4187 29.52 12.064V5.44H30.8V11.744C30.8 12.8427 31.0293 13.6533 31.488 14.176C31.9573 14.6987 32.6827 14.96 33.664 14.96C34.6453 14.96 35.3653 14.6987 35.824 14.176C36.2933 13.6533 36.528 12.8427 36.528 11.744V5.44H37.808ZM40.738 16V8H41.858L41.97 9.792L41.762 9.616C41.9327 9.18933 42.162 8.848 42.45 8.592C42.738 8.32533 43.0687 8.13333 43.442 8.016C43.826 7.89867 44.2207 7.84 44.626 7.84C45.202 7.84 45.7247 7.952 46.194 8.176C46.6633 8.38933 47.0367 8.72 47.314 9.168C47.602 9.616 47.746 10.1867 47.746 10.88V16H46.466V11.328C46.466 10.4427 46.274 9.82933 45.89 9.488C45.5167 9.136 45.0527 8.96 44.498 8.96C44.114 8.96 43.73 9.05067 43.346 9.232C42.962 9.41333 42.642 9.70667 42.386 10.112C42.1407 10.5173 42.018 11.0613 42.018 11.744V16H40.738ZM53.9563 7.84C54.5109 7.84 54.9963 7.92533 55.4123 8.096C55.8389 8.26667 56.2069 8.512 56.5163 8.832C56.8256 9.152 57.0763 9.53067 57.2683 9.968L56.0523 10.544C55.8816 10.032 55.6203 9.64267 55.2683 9.376C54.9269 9.09867 54.4789 8.96 53.9243 8.96C53.3909 8.96 52.9323 9.08267 52.5483 9.328C52.1643 9.56267 51.8709 9.90933 51.6683 10.368C51.4656 10.816 51.3643 11.36 51.3643 12C51.3643 12.6293 51.4656 13.1733 51.6683 13.632C51.8709 14.0907 52.1643 14.4427 52.5483 14.688C52.9323 14.9227 53.3909 15.04 53.9243 15.04C54.3403 15.04 54.6976 14.976 54.9963 14.848C55.3056 14.72 55.5563 14.5333 55.7483 14.288C55.9509 14.0427 56.0896 13.744 56.1643 13.392L57.3483 13.808C57.1669 14.2987 56.9163 14.72 56.5963 15.072C56.2869 15.424 55.9083 15.696 55.4603 15.888C55.0229 16.0693 54.5216 16.16 53.9563 16.16C53.2096 16.16 52.5429 15.9947 51.9563 15.664C51.3696 15.3333 50.9109 14.8587 50.5803 14.24C50.2496 13.6107 50.0843 12.864 50.0843 12C50.0843 11.136 50.2496 10.3947 50.5803 9.776C50.9109 9.14667 51.3696 8.66667 51.9563 8.336C52.5429 8.00533 53.2096 7.84 53.9563 7.84ZM64.2694 10.832C64.2694 10.2347 64.1094 9.776 63.7894 9.456C63.4694 9.12533 63.016 8.96 62.4294 8.96C61.8747 8.96 61.4054 9.08267 61.0214 9.328C60.6374 9.56267 60.3547 9.94667 60.1734 10.48L59.1334 9.84C59.3467 9.24267 59.7414 8.76267 60.3174 8.4C60.8934 8.02667 61.608 7.84 62.4614 7.84C63.0374 7.84 63.56 7.94133 64.0294 8.144C64.4987 8.336 64.8667 8.63467 65.1334 9.04C65.4107 9.43467 65.5494 9.94667 65.5494 10.576V14.448C65.5494 14.832 65.752 15.024 66.1574 15.024C66.36 15.024 66.5574 14.9973 66.7494 14.944L66.6854 15.952C66.472 16.0587 66.1947 16.112 65.8534 16.112C65.544 16.112 65.2667 16.0533 65.0214 15.936C64.776 15.8187 64.584 15.6427 64.4454 15.408C64.3067 15.1627 64.2374 14.8587 64.2374 14.496V14.336L64.5574 14.384C64.4294 14.8 64.2107 15.1413 63.9014 15.408C63.592 15.664 63.2454 15.856 62.8614 15.984C62.4774 16.1013 62.0987 16.16 61.7254 16.16C61.256 16.16 60.8187 16.08 60.4134 15.92C60.008 15.76 59.6827 15.52 59.4374 15.2C59.2027 14.8693 59.0854 14.464 59.0854 13.984C59.0854 13.3867 59.2827 12.896 59.6774 12.512C60.0827 12.1173 60.6427 11.8507 61.3574 11.712L64.5254 11.088V12.144L61.9494 12.672C61.4267 12.7787 61.0374 12.928 60.7814 13.12C60.5254 13.312 60.3974 13.5787 60.3974 13.92C60.3974 14.2507 60.5254 14.5227 60.7814 14.736C61.048 14.9387 61.4214 15.04 61.9014 15.04C62.2107 15.04 62.504 15.0027 62.7814 14.928C63.0694 14.8427 63.3254 14.72 63.5494 14.56C63.7734 14.3893 63.9494 14.1813 64.0774 13.936C64.2054 13.68 64.2694 13.3813 64.2694 13.04V10.832ZM70.2354 5.728V13.792C70.2354 14.1867 70.3474 14.48 70.5714 14.672C70.7954 14.864 71.0834 14.96 71.4354 14.96C71.7447 14.96 72.0114 14.9067 72.2354 14.8C72.4594 14.6933 72.662 14.5493 72.8434 14.368L73.2914 15.44C73.046 15.664 72.7527 15.84 72.4114 15.968C72.0807 16.096 71.6967 16.16 71.2594 16.16C70.854 16.16 70.4754 16.0907 70.1234 15.952C69.7714 15.8027 69.4887 15.5733 69.2754 15.264C69.0727 14.944 68.966 14.528 68.9554 14.016V6.08L70.2354 5.728ZM73.1474 8V9.104H67.3554V8H73.1474ZM78.3945 16.16C77.6372 16.16 76.9598 15.9947 76.3625 15.664C75.7758 15.3333 75.3172 14.8587 74.9865 14.24C74.6558 13.6107 74.4905 12.864 74.4905 12C74.4905 11.136 74.6558 10.3947 74.9865 9.776C75.3172 9.14667 75.7705 8.66667 76.3465 8.336C76.9225 8.00533 77.5785 7.84 78.3145 7.84C79.0612 7.84 79.6958 8 80.2185 8.32C80.7518 8.64 81.1572 9.07733 81.4345 9.632C81.7118 10.176 81.8505 10.7893 81.8505 11.472C81.8505 11.6533 81.8452 11.8187 81.8345 11.968C81.8238 12.1173 81.8078 12.2507 81.7865 12.368H75.3225V11.232H81.2265L80.5705 11.36C80.5705 10.592 80.3572 10 79.9305 9.584C79.5145 9.168 78.9652 8.96 78.2825 8.96C77.7598 8.96 77.3065 9.08267 76.9225 9.328C76.5492 9.56267 76.2558 9.90933 76.0425 10.368C75.8398 10.816 75.7385 11.36 75.7385 12C75.7385 12.6293 75.8452 13.1733 76.0585 13.632C76.2718 14.0907 76.5705 14.4427 76.9545 14.688C77.3492 14.9227 77.8185 15.04 78.3625 15.04C78.9492 15.04 79.4238 14.928 79.7865 14.704C80.1598 14.48 80.4585 14.176 80.6825 13.792L81.6905 14.384C81.4878 14.7467 81.2265 15.0613 80.9065 15.328C80.5972 15.5947 80.2292 15.8027 79.8025 15.952C79.3865 16.0907 78.9172 16.16 78.3945 16.16ZM91.0209 6.528L91.3089 7.664C91.2982 7.664 91.2822 7.664 91.2609 7.664C91.2395 7.664 91.2182 7.664 91.1969 7.664C90.6742 7.664 90.2689 7.77067 89.9809 7.984C89.7035 8.18667 89.5649 8.51733 89.5649 8.976L88.7809 8.576C88.7809 8.16 88.8769 7.79733 89.0689 7.488C89.2609 7.17867 89.5222 6.944 89.8529 6.784C90.1835 6.61333 90.5462 6.528 90.9409 6.528C90.9515 6.528 90.9622 6.528 90.9729 6.528C90.9942 6.528 91.0102 6.528 91.0209 6.528ZM88.5889 14.976C89.3462 14.976 89.9382 15.152 90.3649 15.504C90.7915 15.8453 91.0049 16.304 91.0049 16.88C91.0049 17.4027 90.8289 17.856 90.4769 18.24C90.1355 18.624 89.6715 18.9173 89.0849 19.12C88.5089 19.3333 87.8582 19.44 87.1329 19.44C85.8742 19.44 84.9302 19.2267 84.3009 18.8C83.6822 18.3733 83.3729 17.8613 83.3729 17.264C83.3729 16.8373 83.5115 16.4533 83.7889 16.112C84.0769 15.7813 84.5569 15.5947 85.2289 15.552L85.1169 15.792C84.7542 15.696 84.4449 15.536 84.1889 15.312C83.9435 15.0773 83.8209 14.7413 83.8209 14.304C83.8209 13.8667 83.9809 13.4933 84.3009 13.184C84.6315 12.864 85.1169 12.6667 85.7569 12.592L86.6049 13.024H86.4449C85.9222 13.0773 85.5489 13.2107 85.3249 13.424C85.1115 13.6267 85.0049 13.8507 85.0049 14.096C85.0049 14.3947 85.1115 14.6187 85.3249 14.768C85.5489 14.9067 85.8582 14.976 86.2529 14.976H88.5889ZM87.1169 18.368C87.7355 18.368 88.2422 18.304 88.6369 18.176C89.0422 18.048 89.3409 17.8827 89.5329 17.68C89.7249 17.4773 89.8209 17.2587 89.8209 17.024C89.8209 16.736 89.7035 16.5067 89.4689 16.336C89.2449 16.1653 88.8342 16.08 88.2369 16.08H85.7729C85.4315 16.08 85.1435 16.1653 84.9089 16.336C84.6742 16.5173 84.5569 16.7627 84.5569 17.072C84.5569 17.4667 84.7809 17.7813 85.2289 18.016C85.6875 18.2507 86.3169 18.368 87.1169 18.368ZM87.0049 7.84C87.6449 7.84 88.2102 7.95733 88.7009 8.192C89.2022 8.416 89.5915 8.73067 89.8689 9.136C90.1462 9.54133 90.2849 10.0107 90.2849 10.544C90.2849 11.0667 90.1462 11.536 89.8689 11.952C89.5915 12.3573 89.2022 12.6773 88.7009 12.912C88.2102 13.136 87.6449 13.248 87.0049 13.248C85.9489 13.248 85.1382 12.9973 84.5729 12.496C84.0075 11.984 83.7249 11.3333 83.7249 10.544C83.7249 10.0107 83.8635 9.54133 84.1409 9.136C84.4289 8.73067 84.8182 8.416 85.3089 8.192C85.7995 7.95733 86.3649 7.84 87.0049 7.84ZM87.0049 8.88C86.4502 8.88 85.9862 9.03467 85.6129 9.344C85.2395 9.64267 85.0529 10.0427 85.0529 10.544C85.0529 11.0347 85.2395 11.4347 85.6129 11.744C85.9862 12.0533 86.4502 12.208 87.0049 12.208C87.5595 12.208 88.0235 12.0533 88.3969 11.744C88.7702 11.4347 88.9569 11.0347 88.9569 10.544C88.9569 10.0427 88.7702 9.64267 88.3969 9.344C88.0235 9.03467 87.5595 8.88 87.0049 8.88ZM96.1125 7.84C96.8698 7.84 97.5365 8.00533 98.1125 8.336C98.6992 8.66667 99.1578 9.14667 99.4885 9.776C99.8192 10.3947 99.9845 11.136 99.9845 12C99.9845 12.864 99.8192 13.6107 99.4885 14.24C99.1578 14.8587 98.6992 15.3333 98.1125 15.664C97.5365 15.9947 96.8698 16.16 96.1125 16.16C95.3658 16.16 94.6992 15.9947 94.1125 15.664C93.5258 15.3333 93.0672 14.8587 92.7365 14.24C92.4058 13.6107 92.2405 12.864 92.2405 12C92.2405 11.136 92.4058 10.3947 92.7365 9.776C93.0672 9.14667 93.5258 8.66667 94.1125 8.336C94.6992 8.00533 95.3658 7.84 96.1125 7.84ZM96.1125 8.944C95.5685 8.944 95.1045 9.06667 94.7205 9.312C94.3365 9.55733 94.0378 9.90933 93.8245 10.368C93.6218 10.816 93.5205 11.36 93.5205 12C93.5205 12.6293 93.6218 13.1733 93.8245 13.632C94.0378 14.0907 94.3365 14.4427 94.7205 14.688C95.1045 14.9333 95.5685 15.056 96.1125 15.056C96.6565 15.056 97.1205 14.9333 97.5045 14.688C97.8885 14.4427 98.1818 14.0907 98.3845 13.632C98.5978 13.1733 98.7045 12.6293 98.7045 12C98.7045 11.36 98.5978 10.816 98.3845 10.368C98.1818 9.90933 97.8885 9.55733 97.5045 9.312C97.1205 9.06667 96.6565 8.944 96.1125 8.944ZM102.394 16V8H103.434L103.61 9.312C103.834 8.82133 104.16 8.45333 104.586 8.208C105.024 7.96267 105.552 7.84 106.17 7.84C106.309 7.84 106.458 7.85067 106.618 7.872C106.789 7.89333 106.933 7.936 107.05 8L106.826 9.168C106.709 9.12533 106.581 9.09333 106.442 9.072C106.304 9.05067 106.106 9.04 105.85 9.04C105.52 9.04 105.184 9.136 104.842 9.328C104.512 9.52 104.234 9.81333 104.01 10.208C103.786 10.592 103.674 11.0827 103.674 11.68V16H102.394ZM109.566 6.464C109.278 6.464 109.043 6.37867 108.862 6.208C108.691 6.02667 108.606 5.792 108.606 5.504C108.606 5.216 108.691 4.98667 108.862 4.816C109.043 4.63467 109.278 4.544 109.566 4.544C109.854 4.544 110.083 4.63467 110.254 4.816C110.435 4.98667 110.526 5.216 110.526 5.504C110.526 5.792 110.435 6.02667 110.254 6.208C110.083 6.37867 109.854 6.464 109.566 6.464ZM110.206 8V16H108.926V8H110.206ZM112.6 16V15.024L116.792 10.112L117.8 9.072L116.376 9.104H112.648V8H119.224V8.976L115.032 13.888L114.039 14.928L115.592 14.896H119.352V16H112.6ZM124.941 16.16C124.184 16.16 123.507 15.9947 122.909 15.664C122.323 15.3333 121.864 14.8587 121.533 14.24C121.203 13.6107 121.037 12.864 121.037 12C121.037 11.136 121.203 10.3947 121.533 9.776C121.864 9.14667 122.317 8.66667 122.893 8.336C123.469 8.00533 124.125 7.84 124.861 7.84C125.608 7.84 126.243 8 126.765 8.32C127.299 8.64 127.704 9.07733 127.981 9.632C128.259 10.176 128.397 10.7893 128.397 11.472C128.397 11.6533 128.392 11.8187 128.381 11.968C128.371 12.1173 128.355 12.2507 128.333 12.368H121.869V11.232H127.773L127.117 11.36C127.117 10.592 126.904 10 126.477 9.584C126.061 9.168 125.512 8.96 124.829 8.96C124.307 8.96 123.853 9.08267 123.469 9.328C123.096 9.56267 122.803 9.90933 122.589 10.368C122.387 10.816 122.285 11.36 122.285 12C122.285 12.6293 122.392 13.1733 122.605 13.632C122.819 14.0907 123.117 14.4427 123.501 14.688C123.896 14.9227 124.365 15.04 124.909 15.04C125.496 15.04 125.971 14.928 126.333 14.704C126.707 14.48 127.005 14.176 127.229 13.792L128.237 14.384C128.035 14.7467 127.773 15.0613 127.453 15.328C127.144 15.5947 126.776 15.8027 126.349 15.952C125.933 16.0907 125.464 16.16 124.941 16.16ZM133.952 16.16C133.29 16.16 132.682 15.9947 132.128 15.664C131.573 15.3333 131.13 14.8587 130.8 14.24C130.469 13.6107 130.304 12.864 130.304 12C130.304 11.1147 130.48 10.3627 130.832 9.744C131.184 9.12533 131.648 8.656 132.224 8.336C132.8 8.00533 133.418 7.84 134.08 7.84C134.741 7.84 135.312 8.01067 135.792 8.352C136.282 8.69333 136.608 9.14667 136.768 9.712L136.608 9.824V4.32H137.888V16H136.768L136.656 14.064L136.832 13.968C136.757 14.4373 136.576 14.8373 136.288 15.168C136.01 15.488 135.664 15.7333 135.248 15.904C134.842 16.0747 134.41 16.16 133.952 16.16ZM134.08 15.04C134.592 15.04 135.034 14.912 135.408 14.656C135.792 14.4 136.085 14.0373 136.288 13.568C136.501 13.088 136.608 12.528 136.608 11.888C136.608 11.28 136.501 10.7573 136.288 10.32C136.085 9.88267 135.797 9.54667 135.424 9.312C135.061 9.07733 134.634 8.96 134.144 8.96C133.333 8.96 132.704 9.23733 132.256 9.792C131.808 10.3467 131.584 11.0827 131.584 12C131.584 12.9173 131.802 13.6533 132.24 14.208C132.677 14.7627 133.29 15.04 134.08 15.04Z" fill="white"/>
</svg>
