<svg width="20" height="20" viewBox="0 0 20 20" fill="none" xmlns="http://www.w3.org/2000/svg">
<path d="M16.2024 4.19868H10.8716C10.6858 4.19885 10.5018 4.16332 10.3302 4.09415C10.1587 4.02497 10.0029 3.92351 9.87192 3.79563L8.84038 2.7947C8.58124 2.5419 8.27299 2.34149 7.93348 2.20508C7.59396 2.06867 7.22993 1.99897 6.86246 2.00001H3.79762C3.05592 2.0009 2.34487 2.28719 1.82041 2.79608C1.29596 3.30497 1.00092 3.99492 1 4.71459V15.2854C1.00092 16.0051 1.29596 16.695 1.82041 17.2039C2.34487 17.7128 3.05592 17.9991 3.79762 18H16.2024C16.9441 17.9993 17.6553 17.7131 18.1798 17.2041C18.7043 16.6952 18.9993 16.0051 19 15.2854V6.90991C18.9985 6.1907 18.7032 5.50141 18.1788 4.99317C17.6543 4.48493 16.9436 4.19921 16.2024 4.19868Z" fill="#404655"/>
</svg>
