<svg width="36" height="36" viewBox="0 0 36 36" fill="none" xmlns="http://www.w3.org/2000/svg">
<path fill-rule="evenodd" clip-rule="evenodd" d="M3.375 6.1875C3.375 4.6342 4.6342 3.375 6.1875 3.375H14.0625C15.6158 3.375 16.875 4.6342 16.875 6.1875V25.875C16.875 29.6029 13.8529 32.625 10.125 32.625C6.39708 32.625 3.375 29.6029 3.375 25.875V6.1875ZM10.125 27.5625C11.057 27.5625 11.8125 26.807 11.8125 25.875C11.8125 24.943 11.057 24.1875 10.125 24.1875C9.19302 24.1875 8.4375 24.943 8.4375 25.875C8.4375 26.807 9.19302 27.5625 10.125 27.5625Z" fill="white"/>
<path d="M16.0785 32.625H29.8127C31.366 32.625 32.6252 31.3658 32.6252 29.8125V21.9375C32.6252 20.3842 31.366 19.125 29.8127 19.125H29.603L16.489 32.239C16.3553 32.3727 16.2183 32.5014 16.0785 32.625Z" fill="white"/>
<path d="M19.1074 26.4382L28.8188 16.7268C29.9172 15.6285 29.9172 13.8477 28.8188 12.7493L23.2503 7.18086C22.152 6.08251 20.3712 6.08251 19.2729 7.18086L19.1248 7.32897V25.875C19.1248 26.0641 19.1189 26.2519 19.1074 26.4382Z" fill="white"/>
</svg>
