<svg width="20" height="20" viewBox="0 0 20 20" fill="none" xmlns="http://www.w3.org/2000/svg">
<path d="M10 1C8.21997 1 6.47991 1.52784 4.99987 2.51677C3.51983 3.50571 2.36628 4.91131 1.68509 6.55585C1.0039 8.20038 0.82567 10.01 1.17294 11.7558C1.5202 13.5016 2.37737 15.1053 3.63604 16.364C4.89472 17.6226 6.49836 18.4798 8.24419 18.8271C9.99002 19.1743 11.7996 18.9961 13.4442 18.3149C15.0887 17.6337 16.4943 16.4802 17.4832 15.0001C18.4722 13.5201 19 11.78 19 10C18.9974 7.61386 18.0483 5.32622 16.361 3.63896C14.6738 1.95171 12.3861 1.00265 10 1ZM12.707 12.707C12.5195 12.8945 12.2652 12.9998 12 12.9998C11.7348 12.9998 11.4805 12.8945 11.293 12.707L9.293 10.707C9.10545 10.5195 9.00006 10.2652 9 10V6C9 5.73478 9.10536 5.48043 9.2929 5.29289C9.48043 5.10536 9.73479 5 10 5C10.2652 5 10.5196 5.10536 10.7071 5.29289C10.8946 5.48043 11 5.73478 11 6V9.586L12.707 11.293C12.8945 11.4805 12.9998 11.7348 12.9998 12C12.9998 12.2652 12.8945 12.5195 12.707 12.707Z" fill="white"/>
</svg>
