<svg width="78" height="22" viewBox="0 0 78 22" fill="none" xmlns="http://www.w3.org/2000/svg">
<path fill-rule="evenodd" clip-rule="evenodd" d="M9.99935 2.04297C5.0518 2.04297 1.04102 6.05375 1.04102 11.0013C1.04102 15.9489 5.0518 19.9596 9.99935 19.9596C14.9469 19.9596 18.9577 15.9489 18.9577 11.0013C18.9577 6.05375 14.9469 2.04297 9.99935 2.04297ZM9.99235 6.20963C8.49585 6.20963 7.28108 7.42136 7.28108 8.91797C7.28108 10.4146 8.49585 11.6263 9.99235 11.6263C11.4889 11.6263 12.7037 10.4146 12.7037 8.91797C12.7037 7.42136 11.4889 6.20963 9.99235 6.20963ZM14.2001 14.7348C11.9773 12.3348 7.97828 12.4585 5.80253 14.731L5.64627 14.8872C5.52521 15.0083 5.45912 15.1737 5.46341 15.3449C5.46771 15.516 5.54203 15.678 5.66901 15.7928C6.81409 16.8282 8.33376 17.4596 9.99943 17.4596C11.6651 17.4596 13.1848 16.8282 14.3298 15.7928C14.4568 15.678 14.5312 15.516 14.5354 15.3449C14.5398 15.1737 14.4737 15.0083 14.3526 14.8872L14.2001 14.7348Z" fill="white"/>
<path d="M38.144 16H36.784L35.664 13.072H30.88L29.76 16H28.416L32.528 5.44H34.048L38.144 16ZM31.344 11.872H35.2L33.264 6.672L31.344 11.872ZM43.0299 16.16C42.3685 16.16 41.7605 15.9947 41.2059 15.664C40.6512 15.3333 40.2085 14.8587 39.8779 14.24C39.5472 13.6107 39.3819 12.864 39.3819 12C39.3819 11.1147 39.5579 10.3627 39.9099 9.744C40.2619 9.12533 40.7259 8.656 41.3019 8.336C41.8779 8.00533 42.4965 7.84 43.1579 7.84C43.8192 7.84 44.3899 8.01067 44.8699 8.352C45.3605 8.69333 45.6859 9.14667 45.8459 9.712L45.6859 9.824V4.32H46.9659V16H45.8459L45.7339 14.064L45.9099 13.968C45.8352 14.4373 45.6539 14.8373 45.3659 15.168C45.0885 15.488 44.7419 15.7333 44.3259 15.904C43.9205 16.0747 43.4885 16.16 43.0299 16.16ZM43.1579 15.04C43.6699 15.04 44.1125 14.912 44.4859 14.656C44.8699 14.4 45.1632 14.0373 45.3659 13.568C45.5792 13.088 45.6859 12.528 45.6859 11.888C45.6859 11.28 45.5792 10.7573 45.3659 10.32C45.1632 9.88267 44.8752 9.54667 44.5019 9.312C44.1392 9.07733 43.7125 8.96 43.2219 8.96C42.4112 8.96 41.7819 9.23733 41.3339 9.792C40.8859 10.3467 40.6619 11.0827 40.6619 12C40.6619 12.9173 40.8805 13.6533 41.3179 14.208C41.7552 14.7627 42.3685 15.04 43.1579 15.04ZM49.9411 16V8H51.0611L51.1411 9.248C51.4291 8.75733 51.8025 8.4 52.2611 8.176C52.7305 7.952 53.2105 7.84 53.7011 7.84C54.2665 7.84 54.7998 7.968 55.3011 8.224C55.8025 8.48 56.1865 8.87467 56.4531 9.408C56.6238 9.04533 56.8638 8.752 57.1731 8.528C57.4825 8.29333 57.8185 8.12267 58.1811 8.016C58.5545 7.89867 58.9065 7.84 59.2371 7.84C59.7491 7.84 60.2345 7.94667 60.6931 8.16C61.1625 8.37333 61.5465 8.704 61.8451 9.152C62.1438 9.6 62.2931 10.176 62.2931 10.88V16H61.0131V11.008C61.0131 10.2827 60.8318 9.76 60.4691 9.44C60.1065 9.12 59.6585 8.96 59.1251 8.96C58.7091 8.96 58.3198 9.06133 57.9571 9.264C57.5945 9.46667 57.3011 9.76533 57.0771 10.16C56.8638 10.5547 56.7571 11.04 56.7571 11.616V16H55.4771V11.008C55.4771 10.2827 55.2958 9.76 54.9331 9.44C54.5705 9.12 54.1225 8.96 53.5891 8.96C53.2371 8.96 52.8745 9.056 52.5011 9.248C52.1385 9.42933 51.8345 9.72267 51.5891 10.128C51.3438 10.5333 51.2211 11.0667 51.2211 11.728V16H49.9411ZM65.8311 6.464C65.5431 6.464 65.3085 6.37867 65.1271 6.208C64.9565 6.02667 64.8711 5.792 64.8711 5.504C64.8711 5.216 64.9565 4.98667 65.1271 4.816C65.3085 4.63467 65.5431 4.544 65.8311 4.544C66.1191 4.544 66.3485 4.63467 66.5191 4.816C66.7005 4.98667 66.7911 5.216 66.7911 5.504C66.7911 5.792 66.7005 6.02667 66.5191 6.208C66.3485 6.37867 66.1191 6.464 65.8311 6.464ZM66.4711 8V16H65.1911V8H66.4711ZM69.4411 16V8H70.5611L70.6731 9.792L70.4651 9.616C70.6358 9.18933 70.8651 8.848 71.1531 8.592C71.4411 8.32533 71.7718 8.13333 72.1451 8.016C72.5291 7.89867 72.9238 7.84 73.3291 7.84C73.9051 7.84 74.4278 7.952 74.8971 8.176C75.3665 8.38933 75.7398 8.72 76.0171 9.168C76.3051 9.616 76.4491 10.1867 76.4491 10.88V16H75.1691V11.328C75.1691 10.4427 74.9771 9.82933 74.5931 9.488C74.2198 9.136 73.7558 8.96 73.2011 8.96C72.8171 8.96 72.4331 9.05067 72.0491 9.232C71.6651 9.41333 71.3451 9.70667 71.0891 10.112C70.8438 10.5173 70.7211 11.0613 70.7211 11.744V16H69.4411Z" fill="white"/>
</svg>
